<svg width="134" height="40" viewBox="0 0 134 40" fill="none" xmlns="http://www.w3.org/2000/svg">
<path d="M133.111 35.2774C133.111 35.7808 133.013 36.2793 132.821 36.7444C132.63 37.2094 132.349 37.6319 131.996 37.9877C131.642 38.3435 131.222 38.6256 130.76 38.8179C130.298 39.0102 129.803 39.1089 129.303 39.1084H4.69641C3.68647 39.1095 2.71745 38.7065 2.00248 37.988C1.2875 37.2696 0.885105 36.2946 0.883789 35.2774V4.72595C0.885105 3.70828 1.28734 2.73272 2.00217 2.0135C2.71701 1.29427 3.68601 0.890157 4.69641 0.889893H129.302C129.803 0.889893 130.298 0.989122 130.76 1.18191C131.222 1.37471 131.642 1.65728 131.995 2.01351C132.349 2.36973 132.629 2.79262 132.821 3.25803C133.012 3.72343 133.11 4.22224 133.11 4.72595L133.111 35.2774Z" fill="white"/>
<path d="M129.303 40H4.69651C3.45237 39.9997 2.25915 39.5024 1.37867 38.6171C0.49819 37.7317 0.00236725 36.5308 0 35.2777L0 4.7273C0.00184052 3.47359 0.497336 2.27181 1.37779 1.38558C2.25824 0.499356 3.45176 0.00105818 4.69651 0L129.303 0C130.547 0.00158618 131.74 0.500053 132.621 1.38616C133.501 2.27228 133.997 3.47375 133.999 4.7273V35.2777C134.001 37.8824 131.891 40 129.303 40Z" fill="#080040"/>
<path d="M133.111 35.2774C133.111 35.7808 133.013 36.2793 132.821 36.7444C132.63 37.2094 132.349 37.6319 131.996 37.9877C131.642 38.3435 131.222 38.6256 130.76 38.8179C130.298 39.0102 129.803 39.1089 129.303 39.1084H4.69641C3.68647 39.1095 2.71745 38.7065 2.00248 37.988C1.2875 37.2696 0.885105 36.2946 0.883789 35.2774V4.72595C0.885105 3.70828 1.28734 2.73272 2.00217 2.0135C2.71701 1.29427 3.68601 0.890157 4.69641 0.889893H129.302C129.803 0.889893 130.298 0.989122 130.76 1.18191C131.222 1.37471 131.642 1.65728 131.995 2.01351C132.349 2.36973 132.629 2.79262 132.821 3.25803C133.012 3.72343 133.11 4.22224 133.11 4.72595L133.111 35.2774Z" fill="#080040"/>
<path d="M29.9211 19.7897C29.8923 16.5658 32.542 14.9974 32.6631 14.9244C31.1625 12.7208 28.8366 12.4197 28.0192 12.3957C26.0658 12.1886 24.1709 13.573 23.1758 13.573C22.1608 13.573 20.6284 12.4157 18.9768 12.4497C16.8515 12.4827 14.8633 13.7221 13.7728 15.6466C11.5224 19.5707 13.2008 25.3373 15.3568 28.5091C16.4354 30.0636 17.6957 31.797 19.3453 31.736C20.9591 31.67 21.5619 30.7007 23.5094 30.7007C25.4391 30.7007 26.0052 31.736 27.6875 31.697C29.4196 31.67 30.51 30.1366 31.5508 28.5691C32.7972 26.7897 33.2977 25.0352 33.3176 24.9451C33.2779 24.9311 29.9549 23.6528 29.9211 19.7897ZM26.7431 10.3091C27.6111 9.21582 28.205 7.72841 28.0401 6.21899C26.7838 6.27501 25.2127 7.09424 24.3079 8.16353C23.5075 9.10579 22.7924 10.6502 22.9771 12.1026C24.3884 12.2086 25.8373 11.3854 26.7431 10.3091Z" fill="white"/>
<path d="M129.304 0H62.5605L88.7027 40H129.304C130.548 39.9989 131.741 39.5009 132.622 38.6151C133.502 37.7293 133.998 36.5281 134 35.2747V4.7273C133.998 3.47367 133.503 2.27204 132.622 1.38587C131.742 0.499705 130.548 0.00132228 129.304 0V0Z" fill="url(#paint0_linear)"/>
<path d="M53.2965 31.5121H51.0411L49.8056 27.6021H45.5113L44.3345 31.5121H42.1387L46.3942 18.2005H49.0221L53.2965 31.5121ZM49.4332 25.9616L48.3159 22.4856C48.1978 22.1306 47.9753 21.2943 47.6495 19.978H47.6098C47.4787 20.5441 47.2692 21.3803 46.9822 22.4856L45.8838 25.9616H49.4332ZM64.2189 26.5948C64.2189 28.2272 63.779 29.5176 62.8981 30.4648C62.1095 31.3081 61.1293 31.7292 59.9604 31.7292C58.6981 31.7292 57.7904 31.2761 57.2392 30.3678V35.4042H55.1219V25.0684C55.1219 24.0431 55.095 22.9918 55.0434 21.9135H56.9055L57.0237 23.4349H57.0634C57.7695 22.2886 58.8411 21.7154 60.2792 21.7154C61.4034 21.7154 62.3419 22.1626 63.0927 23.0578C63.8425 23.9551 64.2189 25.1334 64.2189 26.5948ZM62.0618 26.6728C62.0618 25.7385 61.8533 24.9683 61.4342 24.3612C60.9764 23.73 60.3616 23.4139 59.5909 23.4139C59.0686 23.4139 58.5938 23.59 58.1698 23.937C57.7447 24.2871 57.4666 24.7443 57.3365 25.3104C57.2785 25.5222 57.2455 25.7401 57.2382 25.9596V27.561C57.2382 28.2582 57.4507 28.8474 57.8758 29.3295C58.3009 29.8097 58.853 30.0507 59.5323 30.0507C60.3298 30.0507 60.9505 29.7396 61.3945 29.1225C61.8394 28.5033 62.0618 27.6871 62.0618 26.6728ZM75.1801 26.5948C75.1801 28.2272 74.7401 29.5176 73.8592 30.4648C73.0697 31.3081 72.0905 31.7292 70.9206 31.7292C69.6583 31.7292 68.7506 31.2761 68.1994 30.3678V35.4042H66.082V25.0684C66.082 24.0431 66.0552 22.9918 66.0036 21.9135H67.8657L67.9839 23.4349H68.0236C68.7287 22.2886 69.8003 21.7154 71.2394 21.7154C72.3626 21.7154 73.3011 22.1626 74.0539 23.0578C74.8027 23.9551 75.1801 25.1334 75.1801 26.5948ZM73.022 26.6728C73.022 25.7385 72.8125 24.9683 72.3934 24.3612C71.9355 23.73 71.3228 23.4139 70.5521 23.4139C70.0297 23.4139 69.555 23.59 69.129 23.937C68.7039 24.2871 68.4268 24.7443 68.2967 25.3104C68.2322 25.5745 68.1974 25.7896 68.1974 25.9596V27.561C68.1974 28.2582 68.4109 28.8474 68.834 29.3295C69.2591 29.8087 69.8112 30.0507 70.4925 30.0507C71.291 30.0507 71.9117 29.7396 72.3546 29.1225C72.7996 28.5033 73.022 27.6871 73.022 26.6728ZM87.4353 27.7781C87.4353 28.9114 87.042 29.8327 86.2604 30.5439C85.4004 31.3201 84.1997 31.7092 82.6604 31.7092C81.2382 31.7092 80.0981 31.4331 79.238 30.88L79.7276 29.1025C80.6562 29.6566 81.6762 29.9327 82.7865 29.9327C83.585 29.9327 84.2057 29.7506 84.6486 29.3895C85.0925 29.0274 85.317 28.5433 85.317 27.9391C85.317 27.398 85.1313 26.9449 84.7668 26.5758C84.4003 26.2077 83.7945 25.8646 82.9434 25.5495C80.6294 24.6803 79.4714 23.4089 79.4714 21.7364C79.4714 20.6441 79.8806 19.7499 80.6969 19.0507C81.5133 18.3525 82.5958 18.0034 83.9425 18.0034C85.1452 18.0034 86.1472 18.2145 86.9427 18.6356L86.4114 20.3741C85.6626 19.966 84.8174 19.7619 83.872 19.7619C83.1251 19.7619 82.5392 19.947 82.1201 20.3151C81.7675 20.6441 81.5888 21.0453 81.5888 21.5214C81.5888 22.0465 81.7924 22.4826 82.1975 22.8247C82.5491 23.1398 83.1907 23.4829 84.1183 23.851C85.2564 24.3132 86.0926 24.8513 86.6279 25.4695C87.1672 26.0876 87.4353 26.8589 87.4353 27.7781ZM94.4538 23.5139H92.1199V28.1742C92.1199 29.3595 92.5311 29.9507 93.3554 29.9507C93.7337 29.9507 94.0476 29.9187 94.2959 29.8517L94.3545 31.4711C93.9373 31.6282 93.3881 31.7072 92.7078 31.7072C91.8716 31.7072 91.2181 31.4501 90.7464 30.936C90.2767 30.4218 90.0403 29.5606 90.0403 28.3483V23.5099H88.6499V21.9095H90.0403V20.152L92.1199 19.5198V21.9095H94.4538V23.5139ZM104.963 26.6338C104.963 28.1092 104.544 29.3205 103.708 30.2678C102.833 31.2431 101.669 31.7292 100.218 31.7292C98.8176 31.7292 97.7043 31.2621 96.874 30.3288C96.0438 29.3935 95.6286 28.2152 95.6286 26.7938C95.6286 25.3064 96.0577 24.0881 96.9128 23.1408C97.7698 22.1926 98.9238 21.7184 100.375 21.7184C101.773 21.7184 102.896 22.1866 103.746 23.1208C104.559 24.0271 104.963 25.1974 104.963 26.6338ZM102.768 26.6828C102.768 25.8036 102.58 25.0494 102.201 24.4182C101.757 23.656 101.122 23.2749 100.298 23.2749C99.4502 23.2749 98.7997 23.656 98.3568 24.4182C97.9774 25.0494 97.7887 25.8166 97.7887 26.7228C97.7887 27.6031 97.9774 28.3593 98.3568 28.9884C98.8146 29.7506 99.4532 30.1318 100.28 30.1318C101.09 30.1318 101.724 29.7426 102.183 28.9694C102.573 28.3233 102.768 27.564 102.768 26.6828ZM111.848 23.789C111.628 23.749 111.405 23.7292 111.181 23.73C110.436 23.73 109.86 24.0121 109.455 24.5802C109.103 25.0804 108.927 25.7125 108.927 26.4757V31.5121H106.809V24.9363C106.811 23.9287 106.791 22.9212 106.748 21.9145H108.592L108.669 23.751H108.728C108.952 23.1198 109.304 22.6107 109.787 22.2296C110.228 21.8966 110.765 21.7162 111.317 21.7154C111.513 21.7154 111.69 21.7294 111.846 21.7544L111.848 23.789ZM121.318 26.2587C121.323 26.5829 121.297 26.9068 121.24 27.226H114.888C114.912 28.1742 115.22 28.9004 115.81 29.4006C116.345 29.8467 117.038 30.0707 117.888 30.0707C118.828 30.0707 119.686 29.9207 120.458 29.6176L120.79 31.097C119.888 31.4931 118.823 31.6902 117.595 31.6902C116.117 31.6902 114.957 31.2521 114.113 30.3778C113.271 29.5026 112.849 28.3263 112.849 26.8529C112.849 25.4065 113.241 24.2011 114.026 23.2399C114.849 22.2136 115.96 21.7004 117.358 21.7004C118.732 21.7004 119.772 22.2136 120.478 23.2399C121.037 24.0531 121.318 25.0614 121.318 26.2587ZM119.299 25.7055C119.314 25.0724 119.175 24.5272 118.888 24.0661C118.521 23.4719 117.957 23.1758 117.201 23.1758C116.509 23.1758 115.945 23.4649 115.516 24.0451C115.163 24.5062 114.954 25.0604 114.889 25.7035L119.299 25.7055Z" fill="white"/>
<path d="M44.9004 13.4944C44.3115 13.4944 43.802 13.4653 43.3779 13.4163V6.98056C43.971 6.88828 44.5704 6.8428 45.1705 6.84452C47.5987 6.84452 48.717 8.04785 48.717 10.0094C48.717 12.272 47.3961 13.4944 44.9004 13.4944ZM45.2559 7.66975C44.9282 7.66975 44.6491 7.68976 44.4177 7.73777V12.6301C44.5429 12.6501 44.7832 12.6591 45.1209 12.6591C46.7119 12.6591 47.6176 11.7469 47.6176 10.0384C47.6176 8.51498 46.7983 7.66975 45.2559 7.66975ZM52.2019 13.5434C50.8334 13.5434 49.9465 12.5141 49.9465 11.1167C49.9465 9.6603 50.8522 8.62201 52.2793 8.62201C53.628 8.62201 54.5347 9.60228 54.5347 11.0397C54.5347 12.5141 53.6002 13.5434 52.2019 13.5434ZM52.2416 9.38822C51.4898 9.38822 51.0081 10.0964 51.0081 11.0867C51.0081 12.058 51.4997 12.7662 52.2317 12.7662C52.9636 12.7662 53.4552 12.0089 53.4552 11.0667C53.4552 10.1064 52.9735 9.38822 52.2416 9.38822ZM62.3388 8.71904L60.8739 13.4363H59.9195L59.3127 11.3878C59.1618 10.8867 59.0362 10.3782 58.9363 9.86435H58.9164C58.84 10.3785 58.695 10.8936 58.541 11.3878L57.8955 13.4363H56.9312L55.5527 8.71904H56.6223L57.1526 10.9617C57.2778 11.4958 57.383 11.9999 57.4704 12.4761H57.4903C57.5668 12.079 57.6919 11.5828 57.8756 10.9717L58.541 8.72004H59.3892L60.0258 10.9236C60.1797 11.4578 60.3048 11.9819 60.4022 12.4771H60.43C60.4975 11.9919 60.6038 11.4768 60.7478 10.9236L61.3168 8.72004L62.3388 8.71904ZM67.7314 13.4363H66.6907V10.7276C66.6907 9.89336 66.3728 9.47525 65.7462 9.47525C65.1294 9.47525 64.7054 10.0094 64.7054 10.6306V13.4363H63.6646V10.0674C63.6646 9.65029 63.6547 9.20317 63.6259 8.71804H64.5415L64.5902 9.44624H64.619C64.899 8.9421 65.4671 8.62201 66.1037 8.62201C67.0869 8.62201 67.7324 9.37922 67.7324 10.6116L67.7314 13.4363ZM70.6016 13.4363H69.5598V6.55444H70.6016V13.4363ZM74.3963 13.5434C73.0288 13.5434 72.1409 12.5141 72.1409 11.1167C72.1409 9.6603 73.0467 8.62201 74.4728 8.62201C75.8225 8.62201 76.7282 9.60228 76.7282 11.0397C76.7292 12.5141 75.7937 13.5434 74.3963 13.5434ZM74.4351 9.38822C73.6833 9.38822 73.2016 10.0964 73.2016 11.0867C73.2016 12.058 73.6942 12.7662 74.4242 12.7662C75.1571 12.7662 75.6477 12.0089 75.6477 11.0667C75.6487 10.1064 75.168 9.38822 74.4351 9.38822ZM80.8318 13.4363L80.7563 12.8932H80.7285C80.4107 13.3303 79.9469 13.5434 79.359 13.5434C78.5198 13.5434 77.9239 12.9512 77.9239 12.155C77.9239 10.9907 78.926 10.3885 80.661 10.3885V10.3015C80.661 9.6803 80.3343 9.36922 79.6887 9.36922C79.2269 9.36922 78.8217 9.48625 78.4652 9.71931L78.2537 9.03012C78.6867 8.75805 79.2269 8.62201 79.8615 8.62201C81.0851 8.62201 81.7028 9.27219 81.7028 10.5735V12.311C81.7028 12.7872 81.7237 13.1563 81.7703 13.4373L80.8318 13.4363ZM80.6888 11.0867C79.5328 11.0867 78.9528 11.3688 78.9528 12.038C78.9528 12.5331 79.2518 12.7752 79.6669 12.7752C80.1962 12.7752 80.6888 12.368 80.6888 11.8149V11.0867ZM86.7568 13.4363L86.7082 12.6791H86.6794C86.3804 13.2513 85.8779 13.5434 85.1758 13.5434C84.0466 13.5434 83.2104 12.5431 83.2104 11.1357C83.2104 9.6603 84.0774 8.62101 85.2612 8.62101C85.8878 8.62101 86.3318 8.83407 86.582 9.26219H86.6029V6.55444H87.6447V12.165C87.6447 12.6211 87.6556 13.0482 87.6834 13.4363H86.7568ZM86.6029 10.6606C86.6029 10.0004 86.1689 9.43724 85.5065 9.43724C84.7348 9.43724 84.2631 10.1264 84.2631 11.0967C84.2631 12.048 84.7527 12.6991 85.4856 12.6991C86.1401 12.6991 86.6029 12.126 86.6029 11.4468V10.6606ZM94.25 13.5434C92.8825 13.5434 91.9956 12.5141 91.9956 11.1167C91.9956 9.6603 92.9013 8.62201 94.3275 8.62201C95.6771 8.62201 96.5829 9.60228 96.5829 11.0397C96.5839 12.5141 95.6493 13.5434 94.25 13.5434ZM94.2887 9.38822C93.5379 9.38822 93.0563 10.0964 93.0563 11.0867C93.0563 12.058 93.5479 12.7662 94.2788 12.7662C95.0117 12.7662 95.5023 12.0089 95.5023 11.0667C95.5043 10.1064 95.0227 9.38822 94.2887 9.38822ZM102.18 13.4363H101.138V10.7276C101.138 9.89336 100.821 9.47525 100.194 9.47525C99.5771 9.47525 99.1541 10.0094 99.1541 10.6306V13.4363H98.1123V10.0674C98.1123 9.65029 98.1023 9.20317 98.0735 8.71804H98.9892L99.0379 9.44624H99.0667C99.3457 8.9421 99.9148 8.62101 100.55 8.62101C101.534 8.62101 102.18 9.37822 102.18 10.6106V13.4363ZM109.183 9.50526H108.038V11.7959C108.038 12.379 108.238 12.6701 108.643 12.6701C108.827 12.6701 108.981 12.6501 109.105 12.6211L109.134 13.4173C108.932 13.4954 108.662 13.5344 108.327 13.5344C107.506 13.5344 107.016 13.0782 107.016 11.8839V9.50526H106.332V8.71904H107.016V7.8548L108.038 7.54372V8.71804H109.183V9.50526ZM114.693 13.4363H113.653V10.7476C113.653 9.90336 113.336 9.47625 112.708 9.47625C112.169 9.47625 111.667 9.84535 111.667 10.5926V13.4363H110.627V6.55444H111.667V9.38822H111.687C112.015 8.87408 112.49 8.62101 113.096 8.62101C114.087 8.62101 114.693 9.39723 114.693 10.6306V13.4363ZM120.338 11.3298H117.214C117.234 12.223 117.821 12.7271 118.69 12.7271C119.152 12.7271 119.577 12.6491 119.952 12.5041L120.114 13.2323C119.671 13.4263 119.15 13.5234 118.543 13.5234C117.078 13.5234 116.211 12.5911 116.211 11.1457C116.211 9.69931 117.099 8.61201 118.426 8.61201C119.622 8.61201 120.373 9.50526 120.373 10.8546C120.38 11.0139 120.368 11.1734 120.338 11.3298ZM119.383 10.5826C119.383 9.85435 119.019 9.34021 118.353 9.34021C117.755 9.34021 117.283 9.86435 117.215 10.5826H119.383Z" fill="white"/>
<defs>
<linearGradient id="paint0_linear" x1="98.2793" y1="40.1062" x2="98.2793" y2="-104.153" gradientUnits="userSpaceOnUse">
<stop stop-color="#1A1A1A" stop-opacity="0.1"/>
<stop offset="0.123" stop-color="#212121" stop-opacity="0.151"/>
<stop offset="0.308" stop-color="#353535" stop-opacity="0.227"/>
<stop offset="0.532" stop-color="#575757" stop-opacity="0.318"/>
<stop offset="0.783" stop-color="#858585" stop-opacity="0.421"/>
<stop offset="1" stop-color="#B3B3B3" stop-opacity="0.51"/>
</linearGradient>
</defs>
</svg>
