<svg width="20" height="20" viewBox="0 0 20 20" fill="none" xmlns="http://www.w3.org/2000/svg">
<path d="M6.98929 6.95023C5.32913 8.61038 5.32913 11.3115 6.98929 12.9716C8.64944 14.6318 11.3506 14.6318 13.0107 12.9716C13.3159 12.6665 13.8106 12.6665 14.1156 12.9716C14.4206 13.2768 14.4206 13.7715 14.1156 14.0765C12.981 15.2112 11.4905 15.7785 10 15.7785C8.50952 15.7785 7.01904 15.2112 5.8844 14.0765C3.61511 11.8071 3.61511 8.11462 5.8844 5.84534C8.15384 3.57605 11.8463 3.57605 14.1156 5.84534C14.4208 6.15036 14.4208 6.64505 14.1156 6.95023C13.8106 7.25525 13.3159 7.25525 13.0107 6.95023C11.3506 5.29007 8.64944 5.29007 6.98929 6.95023ZM17.0711 2.92892C15.1823 1.04019 12.6711 0 10 0C7.32895 0 4.81766 1.04019 2.92892 2.92892C1.04019 4.81766 0 7.32895 0 10C0 12.6711 1.04019 15.1823 2.92892 17.0711C4.81766 18.9598 7.32895 20 10 20C11.8286 20 13.6179 19.5016 15.1743 18.5588C15.5434 18.3353 15.6613 17.8549 15.4378 17.4858C15.2141 17.1167 14.7337 16.9987 14.3648 17.2224C13.0525 18.0173 11.5431 18.4375 10 18.4375C5.3476 18.4375 1.5625 14.6524 1.5625 10C1.5625 5.3476 5.3476 1.5625 10 1.5625C14.6524 1.5625 18.4375 5.3476 18.4375 10C18.4375 11.6637 17.9428 13.2829 17.0068 14.6829C16.767 15.0417 16.8634 15.5269 17.222 15.7666C17.5809 16.0065 18.0659 15.91 18.3057 15.5515C19.4142 13.8936 20 11.9739 20 10C20 7.32895 18.9598 4.81766 17.0711 2.92892Z" fill="#828282"/>
</svg>
