<svg width="134" height="40" viewBox="0 0 134 40" fill="none" xmlns="http://www.w3.org/2000/svg">
<path d="M129.037 40H4.96296C2.1837 40 0 37.8 0 35V5C0 2.2 2.1837 0 4.96296 0H129.037C131.816 0 134 2.2 134 5V35C134 37.8 131.816 40 129.037 40Z" fill="#080040"/>
<path d="M129.037 0.8C131.32 0.8 133.206 2.7 133.206 5V35C133.206 37.3 131.32 39.2 129.037 39.2H4.96296C2.68 39.2 0.794074 37.3 0.794074 35V5C0.794074 2.7 2.68 0.8 4.96296 0.8H129.037ZM129.037 0H4.96296C2.1837 0 0 2.3 0 5V35C0 37.8 2.1837 40 4.96296 40H129.037C131.816 40 134 37.8 134 35V5C134 2.3 131.816 0 129.037 0Z" fill="black"/>
<path d="M47.0493 10.2001C47.0493 11.0001 46.8508 11.7001 46.3545 12.2001C45.7589 12.8001 45.0641 13.1001 44.1708 13.1001C43.2775 13.1001 42.5826 12.8001 41.9871 12.2001C41.3915 11.6001 41.0938 10.9001 41.0938 10.0001C41.0938 9.10015 41.3915 8.40015 41.9871 7.80015C42.5826 7.20015 43.2775 6.90015 44.1708 6.90015C44.5678 6.90015 44.9649 7.00015 45.3619 7.20015C45.7589 7.40015 46.0567 7.60015 46.2552 7.90015L45.7589 8.40015C45.3619 7.90015 44.8656 7.70015 44.1708 7.70015C43.5752 7.70015 42.9797 7.90015 42.5826 8.40015C42.0863 8.80015 41.8878 9.40015 41.8878 10.1001C41.8878 10.8001 42.0863 11.4001 42.5826 11.8001C43.0789 12.2001 43.5752 12.5001 44.1708 12.5001C44.8656 12.5001 45.3619 12.3001 45.8582 11.8001C46.156 11.5001 46.3545 11.1001 46.3545 10.6001H44.1708V9.80015H47.0493V10.2001ZM51.6152 7.70015H48.9352V9.60015H51.4167V10.3001H48.9352V12.2001H51.6152V13.0001H48.1412V7.00015H51.6152V7.70015ZM54.8908 13.0001H54.0967V7.70015H52.4093V7.00015H56.5782V7.70015H54.8908V13.0001ZM59.4567 13.0001V7.00015H60.2508V13.0001H59.4567ZM63.6256 13.0001H62.8315V7.70015H61.1441V7.00015H65.2137V7.70015H63.5263V13.0001H63.6256ZM73.0552 12.2001C72.4597 12.8001 71.7649 13.1001 70.8715 13.1001C69.9782 13.1001 69.2834 12.8001 68.6878 12.2001C68.0923 11.6001 67.7945 10.9001 67.7945 10.0001C67.7945 9.10015 68.0923 8.40015 68.6878 7.80015C69.2834 7.20015 69.9782 6.90015 70.8715 6.90015C71.7649 6.90015 72.4597 7.20015 73.0552 7.80015C73.6508 8.40015 73.9486 9.10015 73.9486 10.0001C73.9486 10.9001 73.6508 11.6001 73.0552 12.2001ZM69.2834 11.7001C69.6804 12.1001 70.276 12.4001 70.8715 12.4001C71.4671 12.4001 72.0626 12.2001 72.4597 11.7001C72.8567 11.3001 73.1545 10.7001 73.1545 10.0001C73.1545 9.30015 72.956 8.70015 72.4597 8.30015C72.0626 7.90015 71.4671 7.60015 70.8715 7.60015C70.276 7.60015 69.6804 7.80015 69.2834 8.30015C68.8863 8.70015 68.5886 9.30015 68.5886 10.0001C68.5886 10.7001 68.7871 11.3001 69.2834 11.7001ZM75.0404 13.0001V7.00015H75.9337L78.8123 11.7001V7.00015H79.6063V13.0001H78.8123L75.7352 8.10015V13.0001H75.0404Z" fill="white"/>
<path fill-rule="evenodd" clip-rule="evenodd" d="M44.1702 7.05515C43.3176 7.05515 42.6619 7.33889 42.0952 7.90978C41.5286 8.48068 41.2469 9.14126 41.2469 10.0003C41.2469 10.8593 41.5286 11.5198 42.0952 12.0907C42.6619 12.6616 43.3176 12.9454 44.1702 12.9454C45.0229 12.9454 45.6786 12.6616 46.2452 12.0907C46.7025 11.63 46.895 10.9764 46.895 10.2003V9.95515H44.324V10.4454H46.5077V10.6003C46.5077 11.1456 46.2898 11.5839 45.9664 11.9098C45.707 12.1711 45.4422 12.3593 45.1466 12.4811C44.8511 12.6029 44.5327 12.6552 44.1702 12.6552C43.5201 12.6552 42.9887 12.3263 42.486 11.9212C41.941 11.4819 41.7335 10.8288 41.7335 10.1003C41.7335 9.37767 41.9376 8.72926 42.4728 8.29011C42.9068 7.75328 43.5475 7.54536 44.1702 7.54536C44.8398 7.54536 45.3532 7.72481 45.7667 8.17283L46.0523 7.88507C45.8782 7.67159 45.6316 7.50955 45.2926 7.3388C44.9144 7.14827 44.5407 7.05515 44.1702 7.05515ZM41.8778 7.69073C42.5023 7.06162 43.2362 6.74536 44.1702 6.74536C44.5938 6.74536 45.0143 6.85224 45.4301 7.06171C45.8337 7.26502 46.1613 7.47988 46.3826 7.81434L46.4525 7.91999L45.7456 8.63215L45.6383 8.49702C45.2763 8.04113 44.8286 7.85515 44.1702 7.85515C43.607 7.85515 43.0621 8.04377 42.7021 8.49702L42.6915 8.51046L42.6781 8.52121C42.2306 8.88192 42.041 9.42879 42.041 10.1003C42.041 10.7717 42.2306 11.3186 42.6781 11.6793C43.1681 12.0742 43.6293 12.3454 44.1702 12.3454C44.5026 12.3454 44.7798 12.2976 45.0302 12.1944C45.2805 12.0912 45.512 11.9294 45.7489 11.6907C45.9894 11.4485 46.1573 11.1378 46.1931 10.7552H44.0165V9.64536H47.2025V10.2003C47.2025 11.0241 46.998 11.7705 46.4627 12.3098C45.8382 12.9389 45.1043 13.2552 44.1702 13.2552C43.2362 13.2552 42.5023 12.9389 41.8778 12.3098C41.2534 11.6807 40.9395 10.9413 40.9395 10.0003C40.9395 9.05926 41.2534 8.31983 41.8778 7.69073ZM70.871 7.05515C70.0183 7.05515 69.3627 7.33889 68.796 7.90978C68.2293 8.48068 67.9477 9.14126 67.9477 10.0003C67.9477 10.8593 68.2293 11.5198 68.796 12.0907C69.3627 12.6616 70.0183 12.9454 70.871 12.9454C71.7236 12.9454 72.3793 12.6616 72.946 12.0907C73.5126 11.5198 73.7943 10.8593 73.7943 10.0003C73.7943 9.14126 73.5126 8.48068 72.946 7.90978C72.3793 7.33889 71.7236 7.05515 70.871 7.05515ZM68.5786 7.69073C69.203 7.06162 69.9369 6.74536 70.871 6.74536C71.805 6.74536 72.5389 7.06162 73.1634 7.69073C73.7878 8.31983 74.1018 9.05926 74.1018 10.0003C74.1018 10.9413 73.7878 11.6807 73.1634 12.3098C72.5389 12.9389 71.805 13.2552 70.871 13.2552C69.9369 13.2552 69.203 12.9389 68.5786 12.3098C67.9541 11.6807 67.6402 10.9413 67.6402 10.0003C67.6402 9.05926 67.9541 8.31983 68.5786 7.69073ZM47.9869 6.84536H51.7684V7.85515H49.0884V9.44536H51.5699V10.4552H49.0884V12.0454H51.7684V13.1552H47.9869V6.84536ZM48.2944 7.15515V12.8454H51.4609V12.3552H48.7809V10.1454H51.2624V9.75515H48.7809V7.54536H51.4609V7.15515H48.2944ZM52.255 6.84536H56.7314V7.85515H55.044V13.1552H53.9424V7.85515H52.255V6.84536ZM52.5625 7.15515V7.54536H54.2499V12.8454H54.7365V7.54536H56.4239V7.15515H52.5625ZM59.3024 6.84536H60.404V13.1552H59.3024V6.84536ZM59.6099 7.15515V12.8454H60.0965V7.15515H59.6099ZM60.9898 6.84536H65.3669V7.85515H63.6795V13.0003H63.625V13.1552H62.6772V7.85515H60.9898V6.84536ZM63.372 12.8454H62.9847V7.54536H61.2973V7.15515H65.0594V7.54536H63.372V12.8454ZM74.8861 6.84536H76.019L78.658 11.1542V6.84536H79.7595V13.1552H78.7271L75.8884 8.63481V13.1552H75.0399V13.0003H74.8861V6.84536ZM75.1936 12.8454H75.5809V7.56571L78.8964 12.8454H79.452V7.15515H78.9655V12.2463L75.8474 7.15515H75.1936V12.8454ZM69.1681 8.19678C69.6022 7.65501 70.2457 7.44536 70.871 7.44536C71.5115 7.44536 72.1415 7.76421 72.5618 8.1847C73.1019 8.62393 73.3077 9.2747 73.3077 10.0003C73.3077 10.7416 72.9939 11.3775 72.5738 11.8037C72.1397 12.3455 71.4962 12.5552 70.871 12.5552C70.2305 12.5552 69.6005 12.2363 69.1801 11.8158C68.6401 11.3766 68.4343 10.7258 68.4343 10.0003C68.4343 9.25888 68.748 8.623 69.1681 8.19678ZM70.871 7.75515C70.3077 7.75515 69.7628 7.94378 69.4029 8.39702L69.3976 8.40372L69.3915 8.40978C69.0205 8.78355 68.7418 9.34515 68.7418 10.0003C68.7418 10.6717 68.9313 11.2186 69.3789 11.5793L69.3855 11.5847L69.3915 11.5907C69.7653 11.9673 70.3234 12.2454 70.871 12.2454C71.4342 12.2454 71.9792 12.0567 72.3391 11.6035L72.3444 11.5968L72.3504 11.5907C72.7214 11.217 73.0002 10.6554 73.0002 10.0003C73.0002 9.32879 72.8106 8.78192 72.3631 8.42121L72.3564 8.41585L72.3504 8.40978C71.9767 8.03325 71.4185 7.75515 70.871 7.75515Z" fill="white"/>
<path d="M67.5949 21.7999C65.2127 21.7999 63.3268 23.5999 63.3268 26.0999C63.3268 28.4999 65.2127 30.3999 67.5949 30.3999C69.9771 30.3999 71.8631 28.5999 71.8631 26.0999C71.8631 23.4999 69.9771 21.7999 67.5949 21.7999ZM67.5949 28.5999C66.3046 28.5999 65.2127 27.4999 65.2127 25.9999C65.2127 24.4999 66.3046 23.3999 67.5949 23.3999C68.8853 23.3999 69.9771 24.3999 69.9771 25.9999C69.9771 27.4999 68.8853 28.5999 67.5949 28.5999ZM58.3638 21.7999C55.9816 21.7999 54.0957 23.5999 54.0957 26.0999C54.0957 28.4999 55.9816 30.3999 58.3638 30.3999C60.746 30.3999 62.632 28.5999 62.632 26.0999C62.632 23.4999 60.746 21.7999 58.3638 21.7999ZM58.3638 28.5999C57.0734 28.5999 55.9816 27.4999 55.9816 25.9999C55.9816 24.4999 57.0734 23.3999 58.3638 23.3999C59.6542 23.3999 60.746 24.3999 60.746 25.9999C60.746 27.4999 59.6542 28.5999 58.3638 28.5999ZM47.346 23.0999V24.8999H51.6142C51.5149 25.8999 51.1179 26.6999 50.6216 27.1999C50.026 27.7999 49.0334 28.4999 47.346 28.4999C44.666 28.4999 42.6808 26.3999 42.6808 23.6999C42.6808 20.9999 44.7653 18.8999 47.346 18.8999C48.7357 18.8999 49.8275 19.4999 50.6216 20.1999L51.912 18.8999C50.8201 17.8999 49.4305 17.0999 47.4453 17.0999C43.872 17.0999 40.7949 20.0999 40.7949 23.6999C40.7949 27.2999 43.872 30.2999 47.4453 30.2999C49.4305 30.2999 50.8201 29.6999 52.0112 28.3999C53.2023 27.1999 53.5994 25.4999 53.5994 24.1999C53.5994 23.7999 53.5994 23.3999 53.5001 23.0999H47.346ZM92.4097 24.4999C92.0127 23.4999 91.0201 21.7999 88.8364 21.7999C86.6527 21.7999 84.866 23.4999 84.866 26.0999C84.866 28.4999 86.6527 30.3999 89.0349 30.3999C90.9208 30.3999 92.112 29.1999 92.509 28.4999L91.1194 27.4999C90.6231 28.1999 90.0275 28.6999 89.0349 28.6999C88.0423 28.6999 87.4468 28.2999 86.9505 27.3999L92.6083 24.9999L92.4097 24.4999ZM86.6527 25.8999C86.6527 24.2999 87.9431 23.3999 88.8364 23.3999C89.5312 23.3999 90.226 23.7999 90.4246 24.2999L86.6527 25.8999ZM81.9875 29.9999H83.8734V17.4999H81.9875V29.9999ZM79.0097 22.6999C78.5134 22.1999 77.7194 21.6999 76.7268 21.6999C74.6423 21.6999 72.6571 23.5999 72.6571 25.9999C72.6571 28.3999 74.5431 30.1999 76.7268 30.1999C77.7194 30.1999 78.5134 29.6999 78.9105 29.1999H79.0097V29.7999C79.0097 31.3998 78.1164 32.2999 76.7268 32.2999C75.6349 32.2999 74.8409 31.4999 74.6423 30.7999L73.0542 31.4999C73.5505 32.5999 74.7416 33.9999 76.826 33.9999C79.0097 33.9999 80.7964 32.6999 80.7964 29.5999V21.9999H79.0097V22.6999ZM76.826 28.5999C75.5357 28.5999 74.4438 27.4999 74.4438 25.9999C74.4438 24.4999 75.5357 23.3999 76.826 23.3999C78.1164 23.3999 79.109 24.4999 79.109 25.9999C79.109 27.4999 78.1164 28.5999 76.826 28.5999ZM101.045 17.4999H96.5786V29.9999H98.4646V25.2999H101.045C103.13 25.2999 105.115 23.7999 105.115 21.3999C105.115 18.9999 103.13 17.4999 101.045 17.4999ZM101.145 23.4999H98.4646V19.1999H101.145C102.534 19.1999 103.328 20.3999 103.328 21.2999C103.229 22.3999 102.435 23.4999 101.145 23.4999ZM112.559 21.6999C111.17 21.6999 109.78 22.2999 109.284 23.5999L110.971 24.2999C111.368 23.5999 111.964 23.3999 112.659 23.3999C113.651 23.3999 114.545 23.9999 114.644 24.9999V25.0999C114.346 24.8999 113.552 24.5999 112.758 24.5999C110.971 24.5999 109.185 25.5999 109.185 27.3999C109.185 29.0999 110.673 30.1999 112.262 30.1999C113.552 30.1999 114.148 29.5999 114.644 28.9999H114.743V29.9999H116.53V25.1999C116.331 22.9999 114.644 21.6999 112.559 21.6999ZM112.361 28.5999C111.765 28.5999 110.872 28.2999 110.872 27.4999C110.872 26.4999 111.964 26.1999 112.857 26.1999C113.651 26.1999 114.048 26.3999 114.545 26.5999C114.346 27.7999 113.353 28.5999 112.361 28.5999ZM122.783 21.9999L120.699 27.3999H120.599L118.416 21.9999H116.43L119.706 29.5999L117.82 33.7999H119.706L124.768 21.9999H122.783ZM106.108 29.9999H107.993V17.4999H106.108V29.9999Z" fill="white"/>
<path d="M10.3228 7.5C10.025 7.8 9.92578 8.3 9.92578 8.9V31C9.92578 31.6 10.1243 32.1 10.4221 32.4L10.5213 32.5L22.8295 20.1V19.9L10.3228 7.5Z" fill="url(#paint0_linear)"/>
<path d="M26.8001 24.2993L22.7305 20.1993V19.8993L26.8001 15.7993L26.8994 15.8993L31.7631 18.6993C33.1527 19.4993 33.1527 20.7993 31.7631 21.5993L26.8001 24.2993Z" fill="url(#paint1_linear)"/>
<path d="M26.8995 24.2L22.7306 20L10.3232 32.5C10.8195 33 11.5144 33 12.4077 32.6L26.8995 24.2Z" fill="url(#paint2_linear)"/>
<path d="M26.8995 15.8035L12.4077 7.50353C11.5144 7.00353 10.8195 7.10353 10.3232 7.60353L22.7306 20.0035L26.8995 15.8035Z" fill="url(#paint3_linear)"/>
<path opacity="0.2" d="M26.8003 24.1001L12.4077 32.3001C11.6136 32.8001 10.9188 32.7001 10.4225 32.3001L10.3232 32.4001L10.4225 32.5001C10.9188 32.9001 11.6136 33.0001 12.4077 32.5001L26.8003 24.1001Z" fill="black"/>
<path opacity="0.2" d="M10.3228 32.3C10.025 32 9.92578 31.5 9.92578 30.9V31C9.92578 31.6 10.1243 32.1 10.4221 32.4V32.3H10.3228ZM31.7628 21.3L26.7999 24.1L26.8991 24.2L31.7628 21.4C32.4576 21 32.7554 20.5 32.7554 20C32.7554 20.5 32.3584 20.9 31.7628 21.3Z" fill="black"/>
<path opacity="0.2" d="M12.4073 7.59978L31.7628 18.6998C32.3584 19.0998 32.7554 19.4998 32.7554 19.9998C32.7554 19.4998 32.4576 18.9998 31.7628 18.5998L12.4073 7.49978C11.0176 6.69978 9.92578 7.29978 9.92578 8.89978V8.99978C9.92578 7.49978 11.0176 6.79978 12.4073 7.59978Z" fill="white"/>
<defs>
<linearGradient id="paint0_linear" x1="21.6384" y1="8.71" x2="4.85585" y2="25.3672" gradientUnits="userSpaceOnUse">
<stop stop-color="#00A0FF"/>
<stop offset="0.007" stop-color="#00A1FF"/>
<stop offset="0.26" stop-color="#00BEFF"/>
<stop offset="0.512" stop-color="#00D2FF"/>
<stop offset="0.76" stop-color="#00DFFF"/>
<stop offset="1" stop-color="#00E3FF"/>
</linearGradient>
<linearGradient id="paint1_linear" x1="33.5835" y1="20.0003" x2="9.56571" y2="20.0003" gradientUnits="userSpaceOnUse">
<stop stop-color="#FFE000"/>
<stop offset="0.409" stop-color="#FFBD00"/>
<stop offset="0.775" stop-color="#FFA500"/>
<stop offset="1" stop-color="#FF9C00"/>
</linearGradient>
<linearGradient id="paint2_linear" x1="24.6434" y1="22.296" x2="1.886" y2="44.8848" gradientUnits="userSpaceOnUse">
<stop stop-color="#FF3A44"/>
<stop offset="1" stop-color="#C31162"/>
</linearGradient>
<linearGradient id="paint3_linear" x1="7.24323" y1="0.179528" x2="17.4059" y2="10.267" gradientUnits="userSpaceOnUse">
<stop stop-color="#32A071"/>
<stop offset="0.069" stop-color="#2DA771"/>
<stop offset="0.476" stop-color="#15CF74"/>
<stop offset="0.801" stop-color="#06E775"/>
<stop offset="1" stop-color="#00F076"/>
</linearGradient>
</defs>
</svg>
