<svg width="24" height="24" viewBox="0 0 24 24" fill="none" xmlns="http://www.w3.org/2000/svg">
<g clip-path="url(#clip0)">
<path d="M8.95368 21.8457C7.91583 21.8457 6.8476 21.7617 5.77295 21.5932C3.88019 21.2962 1.96417 20.3062 1.422 20.0097L0 19.2323L1.53955 18.726C3.22247 18.1726 4.24622 17.8293 5.51349 17.2917C4.24457 16.6772 3.2666 15.5718 2.79584 14.1429L2.43768 13.0556L2.73138 13.1004C2.45288 12.8197 2.23297 12.5348 2.0625 12.2757C1.45624 11.3549 1.13525 10.2297 1.20355 9.26548L1.27094 8.31644L1.83911 8.53653C1.59943 8.0839 1.42621 7.6005 1.3244 7.09384C1.07629 5.85825 1.28394 4.54557 1.90924 3.39768L2.40418 2.48911L3.0661 3.28415C5.15955 5.79892 7.8111 7.29068 10.9581 7.72739C10.8296 6.84134 10.9259 5.98624 11.2447 5.21976C11.6158 4.3273 12.2761 3.57053 13.1536 3.0311C14.1281 2.43216 15.3098 2.14194 16.4811 2.2139C17.7239 2.29026 18.8522 2.75589 19.7483 3.56137C20.1859 3.44767 20.5084 3.32627 20.9442 3.1622C21.2064 3.06351 21.5037 2.95145 21.8758 2.82328L23.2469 2.35086L22.3528 4.90445C22.4117 4.89951 22.4725 4.8953 22.5361 4.89255L24.0002 4.82627L23.1348 6.00894C23.0852 6.07669 23.0726 6.09592 23.055 6.12247C22.9852 6.22757 22.8984 6.35831 21.7106 7.94437C21.4133 8.34153 21.2648 8.8588 21.2924 9.40116C21.3977 11.4622 21.1448 13.3269 20.5404 14.9434C19.9688 16.4727 19.0829 17.7848 17.9077 18.8434C16.4535 20.1529 14.5992 21.0496 12.3961 21.5081C11.3154 21.7329 10.1548 21.8457 8.95368 21.8457Z" fill="#00ACEE"/>
</g>
<defs>
<clipPath id="clip0">
<rect width="24.0001" height="24" fill="white"/>
</clipPath>
</defs>
</svg>
