<svg width="30" height="30" viewBox="0 0 30 30" fill="none" xmlns="http://www.w3.org/2000/svg">
<path d="M28.6217 15.001L29.9379 11.5682C30.0823 11.1894 29.9698 10.7601 29.6529 10.5032L26.7993 8.18964L26.2218 4.55801C26.158 4.15679 25.843 3.84369 25.4418 3.77994L21.81 3.20248L19.4982 0.347053C19.2432 0.0302001 18.8045 -0.0822921 18.4351 0.0620729L15.0002 1.38011L11.5672 0.0639478C11.1866 -0.0822921 10.761 0.0339499 10.5041 0.348928L8.19045 3.20436L4.55868 3.78182C4.15932 3.84556 3.84433 4.16054 3.78058 4.55989L3.20309 8.19151L0.347554 10.5051C0.0325638 10.7601 -0.0818078 11.1894 0.0625629 11.5682L1.37877 15.001L0.0625629 18.4339C-0.0836827 18.8127 0.0325638 19.242 0.347554 19.497L3.20309 21.8087L3.78058 25.4403C3.84433 25.8415 4.15744 26.1565 4.55868 26.2203L8.19045 26.7977L10.5041 29.6513C10.761 29.97 11.1904 30.0825 11.5691 29.9363L15.0002 28.622L18.4333 29.9381C18.542 29.9794 18.6545 30 18.7689 30C19.0445 30 19.3164 29.8781 19.4982 29.6513L21.81 26.7977L25.4418 26.2203C25.843 26.1565 26.158 25.8415 26.2218 25.4403L26.7993 21.8087L29.6529 19.497C29.9698 19.2401 30.0823 18.8127 29.9379 18.4339L28.6217 15.001Z" fill="#F44336"/>
<path d="M12.1874 13.1261C10.6368 13.1261 9.375 11.8643 9.375 10.3138C9.375 8.76325 10.6368 7.50146 12.1874 7.50146C13.738 7.50146 14.9998 8.76325 14.9998 10.3138C14.9998 11.8643 13.738 13.1261 12.1874 13.1261ZM12.1874 9.37634C11.6699 9.37634 11.2499 9.79631 11.2499 10.3138C11.2499 10.8312 11.6699 11.2512 12.1874 11.2512C12.7049 11.2512 13.1249 10.8312 13.1249 10.3138C13.1249 9.79631 12.7049 9.37634 12.1874 9.37634Z" fill="#FAFAFA"/>
<path d="M17.8124 22.5006C16.2618 22.5006 15 21.2388 15 19.6883C15 18.1378 16.2618 16.876 17.8124 16.876C19.363 16.876 20.6248 18.1378 20.6248 19.6883C20.6248 21.2388 19.363 22.5006 17.8124 22.5006ZM17.8124 18.7508C17.2968 18.7508 16.8749 19.1727 16.8749 19.6883C16.8749 20.2039 17.2968 20.6257 17.8124 20.6257C18.328 20.6257 18.7499 20.2039 18.7499 19.6883C18.7499 19.1727 18.328 18.7508 17.8124 18.7508Z" fill="#FAFAFA"/>
<path d="M10.3116 22.5005C10.1223 22.5005 9.9329 22.4442 9.7679 22.3261C9.34604 22.0243 9.24854 21.4393 9.55041 21.0175L18.9251 7.89338C19.227 7.47153 19.812 7.37404 20.2338 7.67589C20.6557 7.97587 20.7513 8.5627 20.4513 8.98267L11.0766 22.1068C10.891 22.3636 10.6041 22.5005 10.3116 22.5005Z" fill="#FAFAFA"/>
</svg>
