<svg width="13" height="12" viewBox="0 0 13 12" fill="none" xmlns="http://www.w3.org/2000/svg">
<path d="M6.43068 2.19202C8.57397 2.21612 9.91665 2.06331 10.098 4.78548H12.7116C12.7116 0.568418 9.50199 0 6.36264 0C3.22304 0 0.0136719 0.568418 0.0136719 4.78548H2.607C2.80764 2.01143 4.3052 2.16821 6.43068 2.19202Z" fill="#FBAF02"/>
<path d="M1.30905 6.14166C1.94564 6.14166 2.47535 6.18532 2.59311 5.46778C2.60895 5.37026 2.6181 5.25969 2.6181 5.13184H2.58792H0C0 6.19921 0.586117 6.14166 1.30905 6.14166Z" fill="#FBAF02"/>
<path d="M10.1143 5.13184H10.0898C10.0898 5.26055 10.0995 5.37139 10.1176 5.46778C10.2418 6.12947 10.7707 6.08837 11.4051 6.08837C12.1314 6.08837 12.7203 6.14308 12.7203 5.13184H10.1143Z" fill="#FBAF02"/>
<path d="M8.83796 4.40401V3.97989C8.83796 3.79023 8.64721 3.77832 8.41168 3.77832H8.02696C7.79167 3.77832 7.60092 3.79023 7.60092 3.97989V4.34532V4.62882H4.87944V4.34532V3.97989C4.87944 3.79023 4.68869 3.77832 4.4534 3.77832H4.06843C3.83315 3.77832 3.6424 3.79023 3.6424 3.97989V4.40401V4.77426C3.02239 5.51249 0.993649 8.65509 0.919922 9.03555L0.920912 11.5743C0.920912 11.8088 1.08742 11.9995 1.29202 11.9995H11.1883C11.3929 11.9995 11.5594 11.8088 11.5594 11.5743V9.02279C11.4865 8.65339 9.45821 5.51221 8.83796 4.77397V4.40401ZM4.74534 9.37717C4.54618 9.37717 4.38462 9.19233 4.38462 8.96382C4.38462 8.73532 4.54618 8.55048 4.74534 8.55048C4.9445 8.55048 5.10606 8.73532 5.10606 8.96382C5.10606 9.19233 4.9445 9.37717 4.74534 9.37717ZM4.74534 7.95967C4.54618 7.95967 4.38462 7.77482 4.38462 7.54632C4.38462 7.31782 4.54618 7.13298 4.74534 7.13298C4.9445 7.13298 5.10606 7.31782 5.10606 7.54632C5.10606 7.77482 4.9445 7.95967 4.74534 7.95967ZM4.74534 6.54245C4.54618 6.54245 4.38462 6.35761 4.38462 6.1291C4.38462 5.90089 4.54618 5.71576 4.74534 5.71576C4.9445 5.71576 5.10606 5.90089 5.10606 6.1291C5.10606 6.35761 4.9445 6.54245 4.74534 6.54245ZM6.22979 9.37717C6.03063 9.37717 5.86907 9.19233 5.86907 8.96382C5.86907 8.73532 6.03063 8.55048 6.22979 8.55048C6.4292 8.55048 6.59051 8.73532 6.59051 8.96382C6.59051 9.19233 6.4292 9.37717 6.22979 9.37717ZM6.22979 7.95967C6.03063 7.95967 5.86907 7.77482 5.86907 7.54632C5.86907 7.31782 6.03063 7.13298 6.22979 7.13298C6.4292 7.13298 6.59051 7.31782 6.59051 7.54632C6.59051 7.77482 6.4292 7.95967 6.22979 7.95967ZM6.22979 6.54245C6.03063 6.54245 5.86907 6.35761 5.86907 6.1291C5.86907 5.90089 6.03063 5.71576 6.22979 5.71576C6.4292 5.71576 6.59051 5.90089 6.59051 6.1291C6.59051 6.35761 6.4292 6.54245 6.22979 6.54245ZM7.71424 9.37717C7.51482 9.37717 7.35351 9.19233 7.35351 8.96382C7.35351 8.73532 7.51482 8.55048 7.71424 8.55048C7.91365 8.55048 8.07496 8.73532 8.07496 8.96382C8.07496 9.19233 7.91365 9.37717 7.71424 9.37717ZM7.71424 7.95967C7.51482 7.95967 7.35351 7.77482 7.35351 7.54632C7.35351 7.31782 7.51482 7.13298 7.71424 7.13298C7.91365 7.13298 8.07496 7.31782 8.07496 7.54632C8.07496 7.77482 7.91365 7.95967 7.71424 7.95967ZM7.71424 6.54245C7.51482 6.54245 7.35351 6.35761 7.35351 6.1291C7.35351 5.90089 7.51482 5.71576 7.71424 5.71576C7.91365 5.71576 8.07496 5.90089 8.07496 6.1291C8.07496 6.35761 7.91365 6.54245 7.71424 6.54245Z" fill="#FBAF02"/>
</svg>
