<svg width="20" height="20" viewBox="0 0 20 20" fill="none" xmlns="http://www.w3.org/2000/svg">
<path d="M6.40108 9.21798C5.90849 9.07616 5.4159 9.0042 4.93674 9.0042C4.19681 9.0042 3.57939 9.1733 3.10065 9.38036C3.56219 7.69069 4.67094 4.77519 6.87962 4.44687C7.08416 4.41645 7.25178 4.26854 7.30759 4.06945L7.79032 2.34285C7.83102 2.19684 7.80689 2.04054 7.7236 1.91383C7.64032 1.78711 7.50647 1.70256 7.35647 1.682C7.19346 1.65977 7.02731 1.64844 6.86262 1.64844C4.21149 1.64844 1.58596 4.41561 0.478055 8.37776C-0.172297 10.7023 -0.362997 14.197 1.23897 16.3967C2.1354 17.6275 3.44324 18.2848 5.12618 18.3505C5.13311 18.3507 5.13982 18.3509 5.14674 18.3509C7.22325 18.3509 9.06459 16.9524 9.62473 14.9504C9.95935 13.7535 9.80809 12.4983 9.19843 11.4151C8.59529 10.3442 7.60193 9.56351 6.40108 9.21798Z" fill="#BDBDBD"/>
<path d="M19.3994 11.4154C18.7963 10.3442 17.8029 9.56351 16.6021 9.21798C16.1095 9.07616 15.6169 9.0042 15.1379 9.0042C14.398 9.0042 13.7804 9.1733 13.3016 9.38036C13.7632 7.69069 14.8719 4.77519 17.0808 4.44687C17.2854 4.41645 17.4528 4.26854 17.5088 4.06945L17.9915 2.34285C18.0322 2.19684 18.0081 2.04054 17.9248 1.91383C17.8417 1.78711 17.7079 1.70256 17.5577 1.682C17.3949 1.65977 17.2287 1.64844 17.0638 1.64844C14.4127 1.64844 11.7872 4.41561 10.679 8.37776C10.0289 10.7023 9.8382 14.197 11.4404 16.3971C12.3366 17.6278 13.6446 18.2852 15.3274 18.3507C15.3343 18.3509 15.341 18.3511 15.3481 18.3511C17.4244 18.3511 19.266 16.9526 19.8261 14.9506C20.1603 13.7537 20.0089 12.4983 19.3994 11.4154Z" fill="#BDBDBD"/>
</svg>
