<svg width="24" height="24" viewBox="0 0 24 24" fill="none" xmlns="http://www.w3.org/2000/svg">
<path d="M11.1875 19.1875C11.1875 19.3256 11.0756 19.4375 10.9375 19.4375C10.7994 19.4375 10.6875 19.3256 10.6875 19.1875C10.6875 19.0494 10.7994 18.9375 10.9375 18.9375C11.0756 18.9375 11.1875 19.0494 11.1875 19.1875Z" fill="white" stroke="white" stroke-width="1.5"/>
<path d="M14.9375 18.0625C14.9375 18.2006 14.8256 18.3125 14.6875 18.3125C14.5494 18.3125 14.4375 18.2006 14.4375 18.0625C14.4375 17.9244 14.5494 17.8125 14.6875 17.8125C14.8256 17.8125 14.9375 17.9244 14.9375 18.0625Z" fill="white" stroke="white" stroke-width="1.5"/>
<path d="M17.1875 15.4375C17.1875 15.5756 17.0756 15.6875 16.9375 15.6875C16.7994 15.6875 16.6875 15.5756 16.6875 15.4375C16.6875 15.2994 16.7994 15.1875 16.9375 15.1875C17.0756 15.1875 17.1875 15.2994 17.1875 15.4375Z" fill="white" stroke="white" stroke-width="1.5"/>
<path d="M18.5018 2.71653L18.243 2.9749C14.643 1.13065 9.54978 2.19715 5.87328 5.87328C2.19678 9.5494 1.13065 14.6438 2.9749 18.243L2.71653 18.5018C2.29792 18.9204 2.06274 19.4881 2.06274 20.0802C2.06274 20.6722 2.29792 21.2399 2.71653 21.6585C3.13514 22.0771 3.7029 22.3123 4.2949 22.3123C4.88691 22.3123 5.45467 22.0771 5.87328 21.6585L6.13203 21.4002C9.73203 23.2444 14.8253 22.1779 18.5018 18.5018C22.1783 14.8257 23.2444 9.73128 21.4002 6.13203L21.6585 5.87328C22.0771 5.45467 22.3123 4.88691 22.3123 4.2949C22.3123 3.7029 22.0771 3.13514 21.6585 2.71653C21.2399 2.29792 20.6722 2.06274 20.0802 2.06274C19.4881 2.06274 18.9204 2.29792 18.5018 2.71653V2.71653Z" stroke="white" stroke-width="1.5" stroke-miterlimit="10" stroke-linecap="square"/>
</svg>
