<svg width="145" height="50" viewBox="0 0 145 50" fill="none" xmlns="http://www.w3.org/2000/svg">
<path d="M3.98504 25.0247C3.08962 25.0247 2.35914 24.7538 1.79361 24.2118C1.22808 23.6463 0.945312 22.9276 0.945312 22.0557V0.282763H12.6447C14.8362 0.282763 16.5917 0.812949 17.9112 1.87332C19.2544 2.91013 19.9259 4.28861 19.9259 6.00876V7.81139C19.9259 8.63613 19.7256 9.41373 19.3251 10.1442C18.9245 10.8747 18.3707 11.4638 17.6638 11.9115V11.9468C18.8184 12.3239 19.7374 12.9601 20.4208 13.8555C21.1277 14.7509 21.4812 15.7642 21.4812 16.8952V18.6625C21.4812 20.6183 20.8096 22.1735 19.4664 23.3281C18.1233 24.4592 16.3089 25.0247 14.0232 25.0247H3.98504ZM12.8568 10.8511C13.7287 10.8511 14.4356 10.5684 14.9775 10.0028C15.5195 9.4373 15.7905 8.70682 15.7905 7.81139V6.36222C15.7905 5.60818 15.4842 5.0073 14.8715 4.55959C14.2824 4.11188 13.493 3.88802 12.5033 3.88802H5.08076V10.8511H12.8568ZM13.6698 21.4195C14.8244 21.4195 15.7198 21.1603 16.356 20.6419C17.0158 20.1235 17.3457 19.4048 17.3457 18.4858V16.8952C17.3457 16.0941 17.0629 15.4578 16.4974 14.9866C15.9319 14.4917 15.1778 14.2443 14.2353 14.2443H5.08076V21.4195H13.6698Z" fill="white"/>
<path d="M38.94 18.9099H29.1139L26.8164 25.0247H22.5396L32.1536 0.282763H34.0269C35.2994 0.282763 36.183 0.907204 36.6779 2.15609L45.5143 25.0247H41.2021L38.94 18.9099ZM30.2803 15.4461H37.7736L34.0623 5.40789H34.0269L30.2803 15.4461Z" fill="white"/>
<path d="M48.2685 0.282763H61.0283C63.0548 0.282763 64.6924 0.836512 65.9413 1.94401C67.1902 3.05151 67.8146 4.51246 67.8146 6.32688V8.83642C67.8146 10.0617 67.4376 11.1457 66.6836 12.0882C65.9531 13.0072 64.9281 13.6906 63.6085 14.1383V14.209C64.3625 14.6567 64.9634 15.234 65.4111 15.9409C65.8824 16.6243 66.283 17.5197 66.6129 18.6272L68.5922 25.0247H64.3154L62.4068 18.9099C62.1004 17.8496 61.6292 17.0366 60.9929 16.4711C60.3567 15.9056 59.6144 15.6228 58.7661 15.6228H52.4039V25.0247H48.2685V0.282763ZM60.1093 12.0529C61.1932 12.0529 62.0533 11.7583 62.6895 11.1692C63.3493 10.5801 63.6792 9.81432 63.6792 8.87177V6.43291C63.6792 5.67887 63.4318 5.06621 62.9369 4.59494C62.4421 4.12366 61.7823 3.88802 60.9576 3.88802H52.4039V12.0529H60.1093Z" fill="white"/>
<path d="M72.2663 0.282763H76.4017V25.0247H72.2663V0.282763Z" fill="white"/>
<path d="M88.6468 25.3075C86.1961 25.3075 84.2639 24.6006 82.8501 23.1868C81.4363 21.7729 80.7293 19.8407 80.7293 17.3901H84.7941C84.7941 18.7096 85.1358 19.7582 85.8191 20.5358C86.526 21.2899 87.4921 21.6669 88.7175 21.6669H92.6408C93.7955 21.6669 94.7262 21.4195 95.4331 20.9246C96.1401 20.4062 96.4935 19.7347 96.4935 18.9099V17.3547C96.4935 16.7185 96.2461 16.1883 95.7513 15.7642C95.2564 15.34 94.5495 15.0455 93.6305 14.8805L87.1976 13.7848C85.1947 13.4549 83.6513 12.7951 82.5673 11.8055C81.5069 10.8158 80.9768 9.55511 80.9768 8.02347V6.07946C80.9768 4.8777 81.2949 3.81733 81.9311 2.89834C82.5909 1.97936 83.5099 1.27244 84.6881 0.777603C85.8662 0.2592 87.2329 0 88.7882 0H92.7822C94.2432 0 95.5274 0.306328 96.6349 0.918986C97.766 1.50808 98.6378 2.35638 99.2505 3.46388C99.8631 4.57137 100.169 5.84382 100.169 7.28121H96.1401C96.1401 6.19727 95.822 5.32541 95.1857 4.66563C94.5731 3.98228 93.7719 3.6406 92.7822 3.6406H88.7882C87.6807 3.6406 86.7852 3.88802 86.1019 4.38286C85.4421 4.85414 85.1122 5.50214 85.1122 6.32688V7.59932C85.1122 8.25911 85.3478 8.81286 85.8191 9.26057C86.2904 9.68472 86.9737 9.96748 87.8692 10.1089L94.3021 11.2399C96.3286 11.5934 97.8838 12.2532 98.9677 13.2193C100.075 14.1618 100.629 15.3754 100.629 16.8599V19.1574C100.629 20.3591 100.299 21.4313 99.6393 22.3738C98.9795 23.2928 98.0487 24.0115 96.847 24.5299C95.6452 25.0483 94.2667 25.3075 92.7115 25.3075H88.6468Z" fill="white"/>
<path d="M109.955 3.85268H102.109V0.282763H121.937V3.85268H114.091V25.0247H109.955V3.85268Z" fill="white"/>
<path d="M132.168 25.3075C130.378 25.3075 128.799 24.9305 127.432 24.1764C126.065 23.3988 125.005 22.3149 124.251 20.9246C123.497 19.5108 123.12 17.8849 123.12 16.0469V9.26057C123.12 7.42259 123.497 5.80847 124.251 4.41821C125.005 3.00438 126.065 1.92045 127.432 1.16641C128.799 0.388802 130.378 0 132.168 0H135.915C137.706 0 139.285 0.388802 140.651 1.16641C142.042 1.92045 143.114 3.00438 143.868 4.41821C144.622 5.80847 144.999 7.42259 144.999 9.26057V16.0469C144.999 17.8849 144.622 19.5108 143.868 20.9246C143.114 22.3149 142.042 23.3988 140.651 24.1764C139.285 24.9305 137.706 25.3075 135.915 25.3075H132.168ZM135.915 21.6669C137.376 21.6669 138.566 21.1367 139.485 20.0763C140.404 19.016 140.863 17.6257 140.863 15.9056V9.40195C140.863 7.68179 140.404 6.29153 139.485 5.23116C138.589 4.17079 137.4 3.6406 135.915 3.6406H132.204C130.719 3.6406 129.517 4.17079 128.598 5.23116C127.703 6.29153 127.255 7.68179 127.255 9.40195V15.9056C127.255 17.6257 127.703 19.016 128.598 20.0763C129.517 21.1367 130.719 21.6669 132.204 21.6669H135.915Z" fill="white"/>
<rect x="129.32" y="5.58459" width="9.41962" height="14.1383" rx="4.70981" fill="#FBAF02"/>
<path d="M0.0777604 49.7667H1.36081V44.6345C1.36081 43.4098 2.23561 41.7185 4.17963 41.7185C4.52955 41.7185 4.76283 41.7574 4.91835 41.8157L5.17107 40.5521C4.89891 40.4744 4.58787 40.4355 4.21851 40.4355C2.62442 40.4355 1.67185 41.388 1.30249 42.36H1.26361V40.6688H0C0.0388803 41.9907 0.0777604 42.6905 0.0777604 43.507V49.7667Z" fill="white"/>
<path d="M20.7514 45.5677V44.9845C20.7514 42.4961 19.1573 40.4549 16.3968 40.4355C13.8113 40.4355 11.809 42.4767 11.809 45.2177C11.809 47.9588 13.8113 50 16.5135 50C18.0104 50 19.3517 49.4363 20.4209 48.0754L19.4295 47.259C18.924 48.0754 17.8743 48.8336 16.5135 48.8336C14.7055 48.8336 13.3253 47.395 13.1698 45.5677H20.7514ZM13.2087 44.5179C13.2087 43.021 14.725 41.6019 16.3968 41.6019C18.2436 41.6019 19.3517 42.7877 19.3517 44.5179H13.2087Z" fill="white"/>
<path d="M35.2667 42.0684C34.6835 40.8826 33.4976 40.4355 32.234 40.4355C30.5233 40.4355 28.8709 41.2908 28.8709 43.1765C28.8709 44.9067 30.5816 45.4121 31.2037 45.5677L32.4478 45.8593C33.4004 46.0926 34.178 46.4036 34.178 47.3173C34.178 48.367 33.0894 48.8336 32.0396 48.8336C30.9704 48.8336 30.1733 48.2893 29.6485 47.4728L28.5404 48.231C29.3957 49.514 30.6594 50 32.0396 50C33.8087 50 35.5777 49.1835 35.5777 47.2006C35.5777 45.9176 34.6251 45.0039 33.3615 44.7123L32.059 44.4013C30.8732 44.1291 30.2706 43.8181 30.2706 42.9627C30.2706 41.9907 31.262 41.6019 32.1562 41.6019C33.0894 41.6019 33.7309 42.0879 34.1197 42.8266L35.2667 42.0684Z" fill="white"/>
<path d="M48.5011 40.6688H45.8767V38.1027H44.5937V40.6688H42.6691V41.8352H44.5937V47.57C44.5937 49.5723 45.8767 50 46.8487 50C47.4902 50 48.1123 49.8834 48.5789 49.6695L48.5206 48.4837C48.1318 48.6975 47.6458 48.8336 47.1986 48.8336C46.4016 48.8336 45.8767 48.5614 45.8767 47.2006V41.8352H48.5011V40.6688Z" fill="white"/>
<path d="M61.6627 44.1874C59.4854 44.1874 56.0056 44.3818 56.0056 47.3367C56.0056 49.1058 57.522 50 59.1355 50C60.5935 50 61.6044 49.4946 62.3431 48.2893H62.382C62.382 48.7753 62.4209 49.3196 62.4986 49.7667H63.7428C63.665 49.2807 63.5873 48.4254 63.5873 47.7255V43.6625C63.5873 41.4464 62.0515 40.4355 60.263 40.4355C58.5523 40.4355 57.2498 40.902 56.4139 41.7574L57.1915 42.6711C57.9691 41.9712 58.9022 41.6019 59.9714 41.6019C61.5461 41.6019 62.3042 42.3795 62.3042 43.9541V44.1874H61.6627ZM62.3042 45.2372V45.8982C62.3042 47.5117 61.41 48.8336 59.5437 48.8336C58.5134 48.8336 57.4053 48.367 57.4053 47.1618C57.4053 45.3344 60.3408 45.2372 61.6433 45.2372H62.3042Z" fill="white"/>
<path d="M80.6665 49.7667C80.6276 49.1058 80.5693 48.2504 80.5693 47.7644V40.6688H79.2862V45.3344C79.2862 48.6586 76.7979 48.8336 76.5257 48.8336C74.6206 48.8336 74.0568 47.7255 74.0568 45.7038V40.6688H72.7738V46.4425C72.7738 48.6975 73.8819 50 76.1953 50C77.4005 50 78.6836 49.3002 79.2474 48.3087H79.2862C79.2862 48.7947 79.2862 49.2807 79.3446 49.7667H80.6665Z" fill="white"/>
<path d="M89.9329 49.7667H91.2159V44.6345C91.2159 43.4098 92.0907 41.7185 94.0348 41.7185C94.3847 41.7185 94.618 41.7574 94.7735 41.8157L95.0262 40.5521C94.754 40.4744 94.443 40.4355 94.0736 40.4355C92.4796 40.4355 91.527 41.388 91.1576 42.36H91.1187V40.6688H89.8551C89.894 41.9907 89.9329 42.6905 89.9329 43.507V49.7667Z" fill="white"/>
<path d="M107.663 44.1874C105.486 44.1874 102.006 44.3818 102.006 47.3367C102.006 49.1058 103.522 50 105.136 50C106.594 50 107.605 49.4946 108.343 48.2893H108.382C108.382 48.7753 108.421 49.3196 108.499 49.7667H109.743C109.665 49.2807 109.587 48.4254 109.587 47.7255V43.6625C109.587 41.4464 108.052 40.4355 106.263 40.4355C104.552 40.4355 103.25 40.902 102.414 41.7574L103.192 42.6711C103.969 41.9712 104.902 41.6019 105.972 41.6019C107.546 41.6019 108.304 42.3795 108.304 43.9541V44.1874H107.663ZM108.304 45.2372V45.8982C108.304 47.5117 107.41 48.8336 105.544 48.8336C104.514 48.8336 103.406 48.367 103.406 47.1618C103.406 45.3344 106.341 45.2372 107.643 45.2372H108.304Z" fill="white"/>
<path d="M118.677 40.6688C118.716 41.3297 118.774 42.1851 118.774 42.6711V49.7667H120.057V45.1011C120.057 41.7768 122.545 41.6019 122.818 41.6019C124.723 41.6019 125.286 42.71 125.286 44.7317V49.7667H126.569V43.993C126.569 41.738 125.461 40.4355 123.148 40.4355C121.943 40.4355 120.66 41.1353 120.096 42.1268H120.057C120.057 41.6408 120.057 41.1548 119.999 40.6688H118.677Z" fill="white"/>
<path d="M140.502 40.6688H137.877V38.1027H136.594V40.6688H134.669V41.8352H136.594V47.57C136.594 49.5723 137.877 50 138.849 50C139.491 50 140.113 49.8834 140.579 49.6695L140.521 48.4837C140.132 48.6975 139.646 48.8336 139.199 48.8336C138.402 48.8336 137.877 48.5614 137.877 47.2006V41.8352H140.502V40.6688Z" fill="white"/>
</svg>
