<svg width="48" height="48" viewBox="0 0 48 48" fill="none" xmlns="http://www.w3.org/2000/svg">
<path d="M30.2783 19.875H27.6511C27.4718 19.875 27.3188 20.0055 27.2903 20.1832L26.2283 26.9198C26.2073 27.0525 26.3101 27.1725 26.4443 27.1725H27.7921C27.9181 27.1725 28.0246 27.081 28.0448 26.9565L28.3463 25.047C28.3741 24.8693 28.5271 24.7388 28.7071 24.7388H29.5381C31.2683 24.7388 32.2673 23.901 32.5283 22.2413C32.6461 21.5153 32.5328 20.9452 32.1931 20.5455C31.8196 20.1067 31.1573 19.875 30.2783 19.875ZM30.5813 22.335C30.4381 23.2778 29.7173 23.2778 29.0206 23.2778H28.6246L28.9028 21.5167C28.9193 21.4102 29.0116 21.3323 29.1188 21.3323C29.6956 21.3323 30.2026 21.3082 30.4538 21.6022C30.5918 21.765 30.6338 22.0043 30.5813 22.335Z" fill="#444444"/>
<path d="M11.54 19.875H8.91279C8.73354 19.875 8.58054 20.0055 8.55204 20.1832L7.49004 26.9198C7.46904 27.0525 7.57179 27.1725 7.70679 27.1725H8.96079C9.14079 27.1725 9.29304 27.042 9.32154 26.8643L9.60804 25.047C9.63579 24.8693 9.78879 24.7388 9.96879 24.7388H10.7998C12.53 24.7388 13.529 23.901 13.79 22.2413C13.9078 21.5153 13.7945 20.9452 13.4548 20.5455C13.0813 20.1067 12.419 19.875 11.54 19.875ZM11.8438 22.335C11.7005 23.2778 10.9798 23.2778 10.283 23.2778H9.88704L10.1653 21.5167C10.1818 21.4102 10.274 21.3323 10.3813 21.3323H10.5628C11.0368 21.3323 11.4845 21.3322 11.7155 21.6022C11.8543 21.765 11.8955 22.0043 11.8438 22.335Z" fill="#444444"/>
<path d="M19.3927 22.3052H18.1349C18.0269 22.3052 17.9354 22.384 17.9189 22.4905L17.8634 22.8422C17.7412 22.6652 17.4989 22.1875 16.2899 22.1875C14.9002 22.1875 13.7129 23.2405 13.4819 24.718C13.3619 25.4553 13.5322 26.1595 13.9499 26.6508C14.3339 27.1023 14.8814 27.2905 15.5347 27.2905C16.6552 27.2905 17.2762 26.5705 17.2762 26.5705L17.2199 26.92C17.1989 27.0528 17.3017 27.1735 17.4359 27.1735H18.5692C18.7484 27.1735 18.9014 27.043 18.9299 26.8652L19.6102 22.5587C19.6304 22.4252 19.5277 22.3052 19.3927 22.3052ZM17.6392 24.754C17.5177 25.4725 16.9469 25.9555 16.2194 25.9555C15.8542 25.9555 15.5624 25.8377 15.3749 25.6157C15.1889 25.3952 15.1184 25.0818 15.1777 24.7323C15.2909 24.0198 15.8707 23.5217 16.5877 23.5217C16.9447 23.5217 17.2349 23.6403 17.4262 23.8645C17.6189 24.0903 17.6947 24.406 17.6392 24.754Z" fill="#444444"/>
<path d="M38.131 22.3052H36.8732C36.7652 22.3052 36.6737 22.384 36.6572 22.4905L36.6017 22.8422C36.4795 22.6652 36.2365 22.1875 35.0282 22.1875C33.6385 22.1875 32.4512 23.2405 32.2202 24.718C32.1002 25.4553 32.2705 26.1595 32.6882 26.6508C33.0722 27.1023 33.6197 27.2905 34.273 27.2905C35.3935 27.2905 36.0145 26.5705 36.0145 26.5705L35.9582 26.92C35.9372 27.0528 36.04 27.1735 36.1742 27.1735H37.3075C37.4867 27.1735 37.6397 27.043 37.6682 26.8652L38.3485 22.5587C38.368 22.4252 38.2652 22.3052 38.131 22.3052ZM36.3775 24.754C36.256 25.4725 35.6852 25.9555 34.9577 25.9555C34.5925 25.9555 34.3007 25.8377 34.1132 25.6157C33.9272 25.3952 33.8567 25.0818 33.916 24.7323C34.0292 24.0198 34.609 23.5217 35.326 23.5217C35.683 23.5217 35.9732 23.6403 36.1645 23.8645C36.3572 24.0903 36.433 24.406 36.3775 24.754Z" fill="#444444"/>
<path d="M26.0935 22.3047H24.829C24.7082 22.3047 24.595 22.3647 24.5267 22.4644L22.7822 25.0332L22.0427 22.5649C21.9962 22.4104 21.8545 22.3047 21.6932 22.3047H20.4505C20.3005 22.3047 20.1947 22.4524 20.2435 22.5942L21.6355 26.6809L20.326 28.5289C20.2232 28.6744 20.3267 28.8747 20.5045 28.8747H21.7675C21.8875 28.8747 21.9992 28.8162 22.0675 28.7179L26.2727 22.6489C26.374 22.5034 26.2697 22.3047 26.0935 22.3047Z" fill="#444444"/>
<path d="M39.6135 20.0602L38.535 26.9198C38.514 27.0525 38.6167 27.1725 38.751 27.1725H39.8355C40.0155 27.1725 40.1677 27.042 40.1962 26.8643L41.2597 20.1277C41.2807 19.995 41.178 19.875 41.043 19.875H39.8295C39.7215 19.875 39.63 19.9537 39.6135 20.0602Z" fill="#444444"/>
<path d="M1.875 37.875V10.875C1.875 9.225 3.225 7.875 4.875 7.875H43.875C45.525 7.875 46.875 9.225 46.875 10.875V37.875C46.875 39.525 45.525 40.875 43.875 40.875H4.875C3.225 40.875 1.875 39.525 1.875 37.875Z" stroke="#444444" stroke-width="1.5" stroke-miterlimit="10" stroke-linecap="square"/>
</svg>
