<svg width="29" height="29" viewBox="0 0 29 29" fill="none" xmlns="http://www.w3.org/2000/svg">
<g id="icon/maps/restaurant_menu_24px">
<path id="icon/maps/restaurant_menu_24px_2" fill-rule="evenodd" clip-rule="evenodd" d="M23.9841 12.2548C22.0628 14.1761 19.4649 14.7802 17.6161 13.9223L15.8399 15.6986L23.3074 23.1661C23.7786 23.6373 23.7786 24.3986 23.3074 24.8698C22.8361 25.3411 22.0749 25.3411 21.6036 24.8698L14.1361 17.4023L6.65655 24.8577C6.1853 25.329 5.42405 25.329 4.9528 24.8577C4.48155 24.3865 4.48155 23.6252 4.9528 23.154L15.9003 12.2065C15.0424 10.3577 15.6466 7.75983 17.5678 5.83858C19.8878 3.53066 23.1986 3.09566 24.9628 4.85983C26.7391 6.63608 26.292 9.94691 23.9841 12.2548ZM12.8432 12.6899L9.42365 16.1094L4.36074 11.0586C2.87449 9.56028 2.56032 7.34903 3.41824 5.54861C3.78074 4.79944 4.78365 4.64236 5.36365 5.22236L12.8432 12.6899Z" fill="#080040"/>
</g>
</svg>
