<svg width="18" height="18" viewBox="0 0 18 18" fill="none" xmlns="http://www.w3.org/2000/svg">
<path d="M8.99985 0C4.02943 0 0 4.02955 0 8.99985C0 13.9702 4.02943 18 8.99985 18C13.9703 18 18 13.9702 18 8.99985C18 4.02955 13.9703 0 8.99985 0ZM12.8907 10.7116H9.07515C9.06225 10.7116 9.05025 10.7085 9.03747 10.708C9.02469 10.7086 9.01275 10.7116 8.99979 10.7116C8.65604 10.7116 8.37734 10.4329 8.37734 10.0892V3.735C8.37734 3.39126 8.65604 3.11255 8.99979 3.11255C9.34354 3.11255 9.62224 3.39126 9.62224 3.735V9.46672H12.8905C13.2342 9.46672 13.5129 9.74542 13.5129 10.0892C13.5129 10.4329 13.2345 10.7116 12.8907 10.7116Z" fill="white"/>
</svg>
