<svg width="14" height="19" viewBox="0 0 14 19" fill="none" xmlns="http://www.w3.org/2000/svg">
<path d="M7 0C3.14018 0 0 3.08684 0 6.88105C0 11.5898 6.26431 18.5025 6.53102 18.7945C6.78154 19.0688 7.21892 19.0683 7.46898 18.7945C7.73569 18.5025 14 11.5898 14 6.88105C13.9999 3.08684 10.8598 0 7 0ZM7 10.3431C5.05803 10.3431 3.47816 8.79003 3.47816 6.88105C3.47816 4.97207 5.05807 3.41904 7 3.41904C8.94193 3.41904 10.5218 4.97211 10.5218 6.88109C10.5218 8.79007 8.94193 10.3431 7 10.3431Z" fill="white"/>
</svg>
