<svg width="15" height="15" viewBox="0 0 15 15" fill="none" xmlns="http://www.w3.org/2000/svg">
<g clip-path="url(#clip0)">
<path d="M11.9721 1.12378C11.2881 0.342019 10.0177 0 8.42976 0H3.76363C3.44604 0 3.15288 0.2443 3.10402 0.561889L1.14963 12.8746C1.10077 13.1189 1.29621 13.3388 1.54051 13.3388H4.42324L5.15614 8.74593L5.13171 8.89251C5.18057 8.57492 5.4493 8.33062 5.79132 8.33062H7.1594C9.8467 8.33062 11.9477 7.23127 12.5584 4.0798C12.5829 3.98208 12.5829 3.88436 12.6073 3.81107C12.534 3.76221 12.534 3.76221 12.6073 3.81107C12.7783 2.63844 12.6073 1.85668 11.9721 1.12378Z" fill="#263B80"/>
<path d="M12.607 3.81152C12.5826 3.90924 12.5826 3.98253 12.5581 4.08025C11.9474 7.23172 9.8464 8.33107 7.1591 8.33107H5.79103C5.47344 8.33107 5.18028 8.57537 5.13142 8.89296L4.22751 14.5851C4.20308 14.805 4.34966 15.0004 4.56953 15.0004H6.98809C7.28125 15.0004 7.52555 14.7806 7.57441 14.5118L7.59884 14.3897L8.06301 11.507L8.08744 11.336C8.1363 11.0428 8.3806 10.8474 8.67376 10.8474H9.04021C11.3855 10.8474 13.2177 9.89459 13.7552 7.134C13.9751 5.98579 13.8529 5.00859 13.2666 4.34898C13.0712 4.12911 12.8513 3.9581 12.607 3.81152Z" fill="#139AD6"/>
<path d="M11.948 3.56655C11.8503 3.54212 11.7526 3.51769 11.6549 3.49326C11.5572 3.46883 11.4594 3.4444 11.3373 3.4444C10.9708 3.37111 10.5555 3.34668 10.1402 3.34668H6.50016C6.40244 3.34668 6.32915 3.37111 6.25586 3.39554C6.08485 3.46883 5.9627 3.63984 5.93827 3.83528L5.15651 8.7457L5.13208 8.89228C5.18094 8.57469 5.44967 8.33039 5.79169 8.33039H7.15977C9.84706 8.33039 11.948 7.23104 12.5588 4.07958C12.5832 3.98186 12.5832 3.88414 12.6076 3.81085C12.4611 3.73756 12.2901 3.66427 12.0946 3.59098C12.0458 3.59098 11.9969 3.56655 11.948 3.56655Z" fill="#232C65"/>
<path d="M8.40579 0H3.7641C3.44651 0 3.15335 0.244299 3.10449 0.561889L1.98071 7.59771L9.50514 0.0732898C9.16312 0.0244299 8.79667 0 8.40579 0Z" fill="#2A4DAD"/>
<path d="M13.4867 4.691C13.4134 4.56885 13.3645 4.4467 13.2668 4.32455C13.0958 4.12911 12.8515 3.9581 12.6072 3.81152C12.5828 3.90924 12.5828 3.98253 12.5583 4.08025C11.9476 7.23172 9.8466 8.33107 7.1593 8.33107H5.79122C5.47363 8.33107 5.18047 8.57537 5.13161 8.89296L4.34985 13.8278L13.4867 4.691Z" fill="#0D7DBC"/>
<path d="M1.54042 13.3389H4.42315L5.13162 8.89269C5.13162 8.8194 5.15605 8.77054 5.18048 8.72168L1.17397 12.7282L1.14954 12.8748C1.12511 13.1191 1.29612 13.3389 1.54042 13.3389Z" fill="#232C65"/>
<path d="M7.52557 0H3.76336C3.66564 0 3.59235 0.02443 3.51906 0.0488599L3.15261 0.415309C3.12818 0.464169 3.10375 0.513029 3.10375 0.561889L2.37085 5.15472L7.52557 0Z" fill="#436BC4"/>
<path d="M13.7555 7.10908C13.8288 6.74263 13.8532 6.40061 13.8532 6.05859L9.08936 10.8224C11.4102 10.798 13.218 9.84524 13.7555 7.10908Z" fill="#0CB2ED"/>
<path d="M7.59915 14.3893L7.99003 11.9463L4.93628 15H7.01283C7.30599 15 7.55029 14.7802 7.59915 14.5114V14.3893Z" fill="#0CB2ED"/>
<g opacity="0.6">
<path opacity="0.6" d="M12.4607 4.47093L13.8532 5.86343C13.8532 5.69242 13.8043 5.52141 13.7799 5.3504L12.5584 4.12891C12.5096 4.25106 12.4851 4.34878 12.4607 4.47093Z" fill="#33E2FF"/>
<path opacity="0.6" d="M12.1187 5.49707C12.0699 5.59479 12.021 5.69251 11.9722 5.79023L13.6578 7.4759C13.6823 7.35375 13.7067 7.2316 13.7311 7.10945L12.1187 5.49707Z" fill="#33E2FF"/>
<path opacity="0.6" d="M13.1697 8.77094C13.2186 8.67322 13.2674 8.5755 13.3163 8.47778L11.4596 6.62109C11.3863 6.69438 11.3375 6.7921 11.2642 6.86539L13.1697 8.77094Z" fill="#33E2FF"/>
<path opacity="0.6" d="M10.2375 7.64659L12.363 9.772C12.4362 9.69871 12.5095 9.62542 12.5828 9.55213L10.5063 7.47559C10.4086 7.52445 10.3353 7.57331 10.2375 7.64659Z" fill="#33E2FF"/>
<path opacity="0.6" d="M8.94312 8.13581L11.264 10.4567C11.3617 10.4078 11.4594 10.3589 11.5571 10.3101L9.28513 8.03809C9.16299 8.06252 9.06526 8.11138 8.94312 8.13581Z" fill="#33E2FF"/>
<path opacity="0.6" d="M9.79775 10.7985C9.9199 10.7741 10.0665 10.7741 10.1886 10.7496L7.74563 8.30664C7.59905 8.30664 7.4769 8.33107 7.33032 8.33107L9.79775 10.7985Z" fill="#33E2FF"/>
<path opacity="0.6" d="M5.98658 8.33105H5.79114C5.71785 8.33105 5.64456 8.35549 5.5957 8.35549L8.23414 11.0184C8.30743 10.9451 8.40515 10.8718 8.50287 10.8473L5.98658 8.33105Z" fill="#33E2FF"/>
<path opacity="0.6" d="M5.00977 9.60084L7.89251 12.4836L7.9658 12.0927L5.08306 9.20996L5.00977 9.60084Z" fill="#33E2FF"/>
<path opacity="0.6" d="M4.76538 11.1399L7.64812 14.0226L7.72141 13.6562L4.83867 10.7734L4.76538 11.1399Z" fill="#33E2FF"/>
<path opacity="0.6" d="M4.59451 12.3125L4.54565 12.7034L6.84207 14.9998H7.01308C7.08637 14.9998 7.15966 14.9754 7.23295 14.9509L4.59451 12.3125Z" fill="#33E2FF"/>
<path opacity="0.6" d="M4.27686 14.2424L5.03418 14.9997H5.47392L4.35015 13.876L4.27686 14.2424Z" fill="#33E2FF"/>
</g>
</g>
<defs>
<clipPath id="clip0">
<rect width="15" height="15" fill="white"/>
</clipPath>
</defs>
</svg>
