<svg width="24" height="24" viewBox="0 0 24 24" fill="none" xmlns="http://www.w3.org/2000/svg">
<g clip-path="url(#clip0)">
<path d="M20.4853 3.51471C18.2188 1.24823 15.2053 0 12 0C8.79474 0 5.78119 1.24823 3.51471 3.51471C1.24823 5.78119 0 8.79474 0 12C0 15.2053 1.24823 18.2188 3.51471 20.4853C5.78119 22.7518 8.79474 24 12 24C15.2053 24 18.2188 22.7518 20.4853 20.4853C22.7518 18.2188 24 15.2053 24 12C24 8.79474 22.7518 5.78119 20.4853 3.51471ZM12 22.125C6.41711 22.125 1.875 17.5829 1.875 12C1.875 6.41711 6.41711 1.875 12 1.875C17.5829 1.875 22.125 6.41711 22.125 12C22.125 17.5829 17.5829 22.125 12 22.125ZM12.9375 11.0616H17.1562V12.9366H12.9375V17.1553H11.0625V12.9366H6.84375V11.0616H11.0625V6.84283H12.9375V11.0616Z" fill="#080040"/>
</g>
<defs>
<clipPath id="clip0">
<rect width="24" height="24" fill="white"/>
</clipPath>
</defs>
</svg>
