<svg width="12" height="12" viewBox="0 0 12 12" fill="none" xmlns="http://www.w3.org/2000/svg">
<path d="M10.9832 2.66168L10.8037 2.7186L9.84739 2.8038L9.57728 3.23511L9.38128 3.17284L8.62023 2.48671L8.50981 2.12989L8.36196 1.74939L7.88362 1.32037L7.31933 1.20996L7.30634 1.46821L7.85917 2.00764L8.12967 2.32626L7.82555 2.48518L7.57798 2.41221L7.207 2.25749L7.21961 1.95836L6.73287 1.75818L6.57126 2.4615L6.0807 2.57267L6.12922 2.96501L6.7684 3.08803L6.87882 2.46111L7.40644 2.53905L7.65172 2.68269H8.04523L8.31458 3.22212L9.02865 3.94645L8.9763 4.22801L8.40055 4.15466L7.40567 4.65703L6.68932 5.51622L6.5961 5.89673H6.33897L5.85988 5.67591L5.39453 5.89673L5.51029 6.38764L5.71278 6.15422L6.06886 6.14314L6.04403 6.584L6.33897 6.67034L6.63354 7.00118L7.11455 6.86594L7.66394 6.95266L8.30198 7.12419L8.62061 7.16163L9.16084 7.77479L10.2035 8.38796L9.52914 9.67617L8.81737 10.007L8.54726 10.7432L7.51723 11.4308L7.40758 11.8274C10.0407 11.1932 11.9995 8.82805 11.9995 6.00026C11.9987 4.76515 11.6243 3.61561 10.9832 2.66168Z" fill="#FBAF02"/>
<path d="M6.68916 9.13555L6.25216 8.32539L6.65326 7.48963L6.25216 7.3697L5.80178 6.91744L4.804 6.69361L4.47281 6.00071V6.41209H4.32689L3.46701 5.24632V4.28872L2.83672 3.26389L1.83588 3.44227H1.16166L0.822441 3.21996L1.25524 2.87695L0.823587 2.97665C0.303306 3.86511 0 4.89605 0 6.00033C0 9.31316 2.68583 11.9999 5.99928 11.9999C6.25445 11.9999 6.50466 11.9774 6.75219 11.9476L6.68955 11.2207C6.68955 11.2207 6.96497 10.1413 6.96497 10.1046C6.96458 10.0676 6.68916 9.13555 6.68916 9.13555Z" fill="#FBAF02"/>
<path d="M2.22927 1.93468L3.29505 1.7861L3.78629 1.51681L4.33904 1.67609L5.22222 1.6272L5.52476 1.15164L5.96597 1.22422L7.03747 1.12376L7.33276 0.798319L7.74913 0.520244L8.33817 0.608861L8.55286 0.576394C7.77702 0.21123 6.91371 0 5.99882 0C4.13659 0 2.47146 0.848739 1.37207 2.18144H1.37513L2.22927 1.93468ZM6.25247 0.596638L6.86519 0.259358L7.25865 0.486631L6.68909 0.920168L6.14513 0.97479L5.90027 0.81589L6.25247 0.596638ZM4.4376 0.645913L4.70805 0.758594L5.06217 0.645913L5.25507 0.980137L4.4376 1.1948L4.04452 0.964858C4.04414 0.964858 4.42881 0.717341 4.4376 0.645913Z" fill="#FBAF02"/>
</svg>
