<svg width="30" height="30" viewBox="0 0 30 30" fill="none" xmlns="http://www.w3.org/2000/svg">
<path d="M11.1159 18.3996C9.73113 18.3996 8.61206 19.5226 8.61206 20.9074C8.61206 22.2881 9.73113 23.4112 11.1159 23.4112C12.5006 23.4112 13.6197 22.2881 13.6197 20.9074C13.6197 19.5226 12.5006 18.3996 11.1159 18.3996ZM11.1159 22.1593C10.4235 22.1593 9.86392 21.5957 9.86392 20.9073C9.86392 20.215 10.4235 19.6554 11.1159 19.6554C11.8082 19.6554 12.3678 20.215 12.3678 20.9073C12.3677 21.5957 11.8082 22.1593 11.1159 22.1593ZM30 16.5472V19.2207C30 19.8876 29.4594 20.4283 28.7924 20.4283H27.5002C27.2667 18.8262 25.886 17.5944 24.2195 17.5944C22.557 17.5944 21.1762 18.8262 20.9427 20.4283H14.3934C14.1599 18.8262 12.7792 17.5944 11.1167 17.5944C9.45417 17.5944 8.07343 18.8262 7.84 20.4283H6.22177C5.5548 20.4283 5.01417 19.8877 5.01417 19.2207V16.5472H30ZM24.2227 18.3996C22.8379 18.3996 21.7149 19.5226 21.7149 20.9074C21.7149 22.2881 22.838 23.4112 24.2227 23.4112C25.6034 23.4112 26.7265 22.2881 26.7265 20.9074C26.7265 19.5226 25.6034 18.3996 24.2227 18.3996ZM24.2227 22.1593C23.5303 22.1593 22.9708 21.5957 22.9708 20.9073C22.9708 20.215 23.5303 19.6554 24.2227 19.6554C24.911 19.6554 25.4746 20.215 25.4746 20.9073C25.4746 21.5957 24.911 22.1593 24.2227 22.1593ZM29.5242 13.8548L24.7782 9.16112C24.4763 8.86323 24.0698 8.69416 23.6471 8.69416H21.252V7.79646C21.252 7.12828 20.7125 6.58887 20.0444 6.58887H6.22093C5.55672 6.58887 5.01333 7.12833 5.01333 7.79646V7.98568L0.112745 8.55048L8.79637 9.68127L0 10.5551L8.76539 11.8013L0 12.5613L5.01363 13.5069L5.01328 15.8796H29.9992V14.998C29.9992 14.5672 29.8261 14.1567 29.5242 13.8548ZM27.4551 14.0118H22.8621C22.7575 14.0118 22.6729 13.9272 22.6729 13.8226V10.2762C22.6729 10.1715 22.7575 10.087 22.8621 10.087H23.7356C23.7839 10.087 23.8323 10.1071 23.8685 10.1393L27.584 13.6857C27.7087 13.8024 27.6241 14.0118 27.4551 14.0118Z" fill="white"/>
</svg>
