<svg width="29" height="29" viewBox="0 0 29 29" fill="none" xmlns="http://www.w3.org/2000/svg">
<g id="icon/maps/local_atm_24px">
<path id="icon/maps/local_atm_24px_2" fill-rule="evenodd" clip-rule="evenodd" d="M24.166 4.83301H4.83268C3.49143 4.83301 2.4281 5.90842 2.4281 7.24967L2.41602 21.7497C2.41602 23.0909 3.49143 24.1663 4.83268 24.1663H24.166C25.5073 24.1663 26.5827 23.0909 26.5827 21.7497V7.24967C26.5827 5.90842 25.5073 4.83301 24.166 4.83301ZM24.1662 20.5414C24.1662 21.206 23.6225 21.7497 22.9579 21.7497H6.04122C5.37664 21.7497 4.83289 21.206 4.83289 20.5414V8.45806C4.83289 7.79348 5.37664 7.24973 6.04122 7.24973H22.9579C23.6225 7.24973 24.1662 7.79348 24.1662 8.45806V20.5414ZM18.1241 10.8749C18.1241 11.5394 17.5804 12.0832 16.9158 12.0832H13.2908V13.2915H16.9158C17.5804 13.2915 18.1241 13.8353 18.1241 14.4999V18.1249C18.1241 18.7894 17.5804 19.3332 16.9158 19.3332H15.7075C15.7075 19.9978 15.1637 20.5415 14.4991 20.5415C13.8346 20.5415 13.2908 19.9978 13.2908 19.3332H12.0825C11.4179 19.3332 10.8741 18.7894 10.8741 18.1249C10.8741 17.4603 11.4179 16.9165 12.0825 16.9165H15.7075V15.7082H12.0825C11.4179 15.7082 10.8741 15.1644 10.8741 14.4999V10.8749C10.8741 10.2103 11.4179 9.66652 12.0825 9.66652H13.2908V9.65443C13.2908 8.98985 13.8346 8.4461 14.4991 8.4461C15.1637 8.4461 15.7075 8.98985 15.7075 9.65443V9.66652H16.9158C17.5804 9.66652 18.1241 10.2103 18.1241 10.8749Z" fill="#080040"/>
</g>
</svg>
