<svg width="146" height="50" viewBox="0 0 146 50" fill="none" xmlns="http://www.w3.org/2000/svg">
<path d="M4.80926 25.0247C3.91384 25.0247 3.18336 24.7538 2.61783 24.2118C2.0523 23.6463 1.76953 22.9276 1.76953 22.0557V0.282763H13.469C15.6604 0.282763 17.4159 0.812949 18.7355 1.87332C20.0786 2.91013 20.7502 4.28861 20.7502 6.00876V7.81139C20.7502 8.63613 20.5499 9.41373 20.1493 10.1442C19.7487 10.8747 19.195 11.4638 18.488 11.9115V11.9468C19.6427 12.3239 20.5617 12.9601 21.245 13.8555C21.9519 14.7509 22.3054 15.7642 22.3054 16.8952V18.6625C22.3054 20.6183 21.6338 22.1735 20.2907 23.3281C18.9475 24.4592 17.1331 25.0247 14.8474 25.0247H4.80926ZM13.681 10.8511C14.5529 10.8511 15.2598 10.5684 15.8018 10.0028C16.3437 9.4373 16.6147 8.70682 16.6147 7.81139V6.36222C16.6147 5.60818 16.3084 5.0073 15.6957 4.55959C15.1066 4.11188 14.3172 3.88802 13.3276 3.88802H5.90498V10.8511H13.681ZM14.494 21.4195C15.6486 21.4195 16.544 21.1603 17.1802 20.6419C17.84 20.1235 18.1699 19.4048 18.1699 18.4858V16.8952C18.1699 16.0941 17.8872 15.4578 17.3216 14.9866C16.7561 14.4917 16.0021 14.2443 15.0595 14.2443H5.90498V21.4195H14.494Z" fill="#080040"/>
<path d="M39.7642 18.9099H29.9381L27.6406 25.0247H23.3638L32.9778 0.282763H34.8512C36.1236 0.282763 37.0072 0.907204 37.5021 2.15609L46.3385 25.0247H42.0263L39.7642 18.9099ZM31.1045 15.4461H38.5978L34.8865 5.40789H34.8512L31.1045 15.4461Z" fill="#080040"/>
<path d="M49.0927 0.282763H61.8525C63.879 0.282763 65.5167 0.836512 66.7655 1.94401C68.0144 3.05151 68.6389 4.51246 68.6389 6.32688V8.83642C68.6389 10.0617 68.2618 11.1457 67.5078 12.0882C66.7773 13.0072 65.7523 13.6906 64.4327 14.1383V14.209C65.1868 14.6567 65.7876 15.234 66.2354 15.9409C66.7066 16.6243 67.1072 17.5197 67.4371 18.6272L69.4165 25.0247H65.1396L63.231 18.9099C62.9246 17.8496 62.4534 17.0366 61.8171 16.4711C61.1809 15.9056 60.4387 15.6228 59.5904 15.6228H53.2281V25.0247H49.0927V0.282763ZM60.9335 12.0529C62.0174 12.0529 62.8775 11.7583 63.5137 11.1692C64.1735 10.5801 64.5034 9.81432 64.5034 8.87177V6.43291C64.5034 5.67887 64.256 5.06621 63.7612 4.59494C63.2663 4.12366 62.6065 3.88802 61.7818 3.88802H53.2281V12.0529H60.9335Z" fill="#080040"/>
<path d="M73.0905 0.282763H77.2259V25.0247H73.0905V0.282763Z" fill="#080040"/>
<path d="M89.471 25.3075C87.0204 25.3075 85.0881 24.6006 83.6743 23.1868C82.2605 21.7729 81.5536 19.8407 81.5536 17.3901H85.6183C85.6183 18.7096 85.96 19.7582 86.6433 20.5358C87.3503 21.2899 88.3164 21.6669 89.5417 21.6669H93.4651C94.6197 21.6669 95.5505 21.4195 96.2574 20.9246C96.9643 20.4062 97.3177 19.7347 97.3177 18.9099V17.3547C97.3177 16.7185 97.0703 16.1883 96.5755 15.7642C96.0806 15.34 95.3737 15.0455 94.4547 14.8805L88.0218 13.7848C86.0189 13.4549 84.4755 12.7951 83.3915 11.8055C82.3312 10.8158 81.801 9.55511 81.801 8.02347V6.07946C81.801 4.8777 82.1191 3.81733 82.7553 2.89834C83.4151 1.97936 84.3341 1.27244 85.5123 0.777603C86.6905 0.2592 88.0572 0 89.6124 0H93.6064C95.0674 0 96.3516 0.306328 97.4591 0.918986C98.5902 1.50808 99.462 2.35638 100.075 3.46388C100.687 4.57137 100.994 5.84382 100.994 7.28121H96.9643C96.9643 6.19727 96.6462 5.32541 96.0099 4.66563C95.3973 3.98228 94.5961 3.6406 93.6064 3.6406H89.6124C88.5049 3.6406 87.6095 3.88802 86.9261 4.38286C86.2663 4.85414 85.9364 5.50214 85.9364 6.32688V7.59932C85.9364 8.25911 86.1721 8.81286 86.6433 9.26057C87.1146 9.68472 87.798 9.96748 88.6934 10.1089L95.1263 11.2399C97.1528 11.5934 98.708 12.2532 99.7919 13.2193C100.899 14.1618 101.453 15.3754 101.453 16.8599V19.1574C101.453 20.3591 101.123 21.4313 100.464 22.3738C99.8037 23.2928 98.8729 24.0115 97.6712 24.5299C96.4694 25.0483 95.091 25.3075 93.5357 25.3075H89.471Z" fill="#080040"/>
<path d="M110.779 3.85268H102.933V0.282763H122.762V3.85268H114.915V25.0247H110.779V3.85268Z" fill="#080040"/>
<path d="M132.993 25.3075C131.202 25.3075 129.623 24.9305 128.256 24.1764C126.89 23.3988 125.829 22.3149 125.075 20.9246C124.321 19.5108 123.944 17.8849 123.944 16.0469V9.26057C123.944 7.42259 124.321 5.80847 125.075 4.41821C125.829 3.00438 126.89 1.92045 128.256 1.16641C129.623 0.388802 131.202 0 132.993 0H136.739C138.53 0 140.109 0.388802 141.476 1.16641C142.866 1.92045 143.938 3.00438 144.692 4.41821C145.446 5.80847 145.823 7.42259 145.823 9.26057V16.0469C145.823 17.8849 145.446 19.5108 144.692 20.9246C143.938 22.3149 142.866 23.3988 141.476 24.1764C140.109 24.9305 138.53 25.3075 136.739 25.3075H132.993ZM136.739 21.6669C138.2 21.6669 139.39 21.1367 140.309 20.0763C141.228 19.016 141.688 17.6257 141.688 15.9056V9.40195C141.688 7.68179 141.228 6.29153 140.309 5.23116C139.414 4.17079 138.224 3.6406 136.739 3.6406H133.028C131.543 3.6406 130.342 4.17079 129.423 5.23116C128.527 6.29153 128.08 7.68179 128.08 9.40195V15.9056C128.08 17.6257 128.527 19.016 129.423 20.0763C130.342 21.1367 131.543 21.6669 133.028 21.6669H136.739Z" fill="#080040"/>
<rect x="130.145" y="5.58496" width="9.41962" height="14.1383" rx="4.70981" fill="#FBAF02"/>
<path d="M0.901979 49.7666H2.18503V44.6344C2.18503 43.4097 3.05983 41.7184 5.00385 41.7184C5.35377 41.7184 5.58705 41.7573 5.74257 41.8156L5.99529 40.552C5.72313 40.4742 5.41209 40.4354 5.04273 40.4354C3.44864 40.4354 2.49607 41.3879 2.12671 42.3599H2.08783V40.6686H0.824219C0.863099 41.9906 0.901979 42.6904 0.901979 43.5069V49.7666Z" fill="#080040"/>
<path d="M21.5756 45.5675V44.9843C21.5756 42.496 19.9816 40.4548 17.2211 40.4354C14.6355 40.4354 12.6332 42.4766 12.6332 45.2176C12.6332 47.9587 14.6355 49.9999 17.3377 49.9999C18.8346 49.9999 20.176 49.4361 21.2452 48.0753L20.2537 47.2588C19.7483 48.0753 18.6985 48.8335 17.3377 48.8335C15.5298 48.8335 14.1495 47.3949 13.994 45.5675H21.5756ZM14.0329 44.5178C14.0329 43.0209 15.5492 41.6018 17.2211 41.6018C19.0679 41.6018 20.176 42.7876 20.176 44.5178H14.0329Z" fill="#080040"/>
<path d="M36.0909 42.0683C35.5077 40.8825 34.3218 40.4354 33.0582 40.4354C31.3475 40.4354 29.6951 41.2907 29.6951 43.1764C29.6951 44.9066 31.4058 45.412 32.0279 45.5675L33.2721 45.8591C34.2246 46.0924 35.0022 46.4035 35.0022 47.3172C35.0022 48.3669 33.9136 48.8335 32.8638 48.8335C31.7946 48.8335 30.9976 48.2892 30.4727 47.4727L29.3646 48.2308C30.22 49.5139 31.4836 49.9999 32.8638 49.9999C34.6329 49.9999 36.4019 49.1834 36.4019 47.2005C36.4019 45.9175 35.4494 45.0038 34.1857 44.7122L32.8833 44.4011C31.6974 44.129 31.0948 43.8179 31.0948 42.9626C31.0948 41.9906 32.0862 41.6018 32.9805 41.6018C33.9136 41.6018 34.5551 42.0878 34.9439 42.8265L36.0909 42.0683Z" fill="#080040"/>
<path d="M49.3254 40.6686H46.7009V38.1025H45.4179V40.6686H43.4933V41.835H45.4179V47.5699C45.4179 49.5722 46.7009 49.9999 47.6729 49.9999C48.3145 49.9999 48.9366 49.8833 49.4031 49.6694L49.3448 48.4836C48.956 48.6974 48.47 48.8335 48.0229 48.8335C47.2258 48.8335 46.7009 48.5613 46.7009 47.2005V41.835H49.3254V40.6686Z" fill="#080040"/>
<path d="M62.4869 44.1873C60.3096 44.1873 56.8298 44.3817 56.8298 47.3366C56.8298 49.1056 58.3462 49.9999 59.9597 49.9999C61.4177 49.9999 62.4286 49.4945 63.1673 48.2892H63.2062C63.2062 48.7752 63.2451 49.3195 63.3228 49.7666H64.567C64.4893 49.2806 64.4115 48.4252 64.4115 47.7254V43.6624C64.4115 41.4462 62.8757 40.4354 61.0872 40.4354C59.3765 40.4354 58.074 40.9019 57.2381 41.7573L58.0157 42.671C58.7933 41.9711 59.7264 41.6018 60.7956 41.6018C62.3703 41.6018 63.1284 42.3794 63.1284 43.954V44.1873H62.4869ZM63.1284 45.2371V45.898C63.1284 47.5116 62.2342 48.8335 60.368 48.8335C59.3376 48.8335 58.2295 48.3669 58.2295 47.1616C58.2295 45.3343 61.165 45.2371 62.4675 45.2371H63.1284Z" fill="#080040"/>
<path d="M81.4907 49.7666C81.4518 49.1056 81.3935 48.2503 81.3935 47.7643V40.6686H80.1105V45.3343C80.1105 48.6585 77.6221 48.8335 77.35 48.8335C75.4448 48.8335 74.8811 47.7254 74.8811 45.7036V40.6686H73.598V46.4424C73.598 48.6974 74.7061 49.9999 77.0195 49.9999C78.2248 49.9999 79.5078 49.3001 80.0716 48.3086H80.1105C80.1105 48.7946 80.1105 49.2806 80.1688 49.7666H81.4907Z" fill="#080040"/>
<path d="M90.7571 49.7666H92.0402V44.6344C92.0402 43.4097 92.915 41.7184 94.859 41.7184C95.2089 41.7184 95.4422 41.7573 95.5977 41.8156L95.8504 40.552C95.5783 40.4742 95.2672 40.4354 94.8979 40.4354C93.3038 40.4354 92.3512 41.3879 91.9818 42.3599H91.943V40.6686H90.6794C90.7182 41.9906 90.7571 42.6904 90.7571 43.5069V49.7666Z" fill="#080040"/>
<path d="M108.487 44.1873C106.31 44.1873 102.83 44.3817 102.83 47.3366C102.83 49.1056 104.346 49.9999 105.96 49.9999C107.418 49.9999 108.429 49.4945 109.168 48.2892H109.206C109.206 48.7752 109.245 49.3195 109.323 49.7666H110.567C110.489 49.2806 110.412 48.4252 110.412 47.7254V43.6624C110.412 41.4462 108.876 40.4354 107.087 40.4354C105.377 40.4354 104.074 40.9019 103.238 41.7573L104.016 42.671C104.793 41.9711 105.727 41.6018 106.796 41.6018C108.37 41.6018 109.129 42.3794 109.129 43.954V44.1873H108.487ZM109.129 45.2371V45.898C109.129 47.5116 108.234 48.8335 106.368 48.8335C105.338 48.8335 104.23 48.3669 104.23 47.1616C104.23 45.3343 107.165 45.2371 108.468 45.2371H109.129Z" fill="#080040"/>
<path d="M119.501 40.6686C119.54 41.3296 119.598 42.185 119.598 42.671V49.7666H120.881V45.101C120.881 41.7767 123.37 41.6018 123.642 41.6018C125.547 41.6018 126.111 42.7098 126.111 44.7316V49.7666H127.394V43.9929C127.394 41.7378 126.286 40.4354 123.972 40.4354C122.767 40.4354 121.484 41.1352 120.92 42.1266H120.881C120.881 41.6406 120.881 41.1546 120.823 40.6686H119.501Z" fill="#080040"/>
<path d="M141.326 40.6686H138.701V38.1025H137.418V40.6686H135.494V41.835H137.418V47.5699C137.418 49.5722 138.701 49.9999 139.673 49.9999C140.315 49.9999 140.937 49.8833 141.404 49.6694L141.345 48.4836C140.956 48.6974 140.47 48.8335 140.023 48.8335C139.226 48.8335 138.701 48.5613 138.701 47.2005V41.835H141.326V40.6686Z" fill="#080040"/>
</svg>
